<svg id="svg" version="1.1" xmlns="http://www.w3.org/2000/svg" xmlns:xlink="http://www.w3.org/1999/xlink" width="400" height="151.64835164835165" viewBox="0, 0, 400,151.64835164835165"><g id="svgg"><path id="path0" d="M0.000 75.750 L 0.000 151.500 200.000 151.500 L 400.000 151.500 400.000 75.750 L 400.000 0.000 200.000 0.000 L 0.000 0.000 0.000 75.750 M49.235 44.208 C 49.368 44.415,49.527 44.784,49.587 45.029 C 49.647 45.275,49.849 45.612,50.034 45.779 C 50.220 45.947,50.552 46.458,50.772 46.917 C 51.295 48.005,51.852 48.904,52.297 49.378 C 52.494 49.588,52.761 50.059,52.890 50.425 C 53.019 50.791,53.322 51.381,53.562 51.735 C 53.803 52.090,54.000 52.470,54.000 52.581 C 54.000 52.691,54.143 52.911,54.318 53.070 C 54.493 53.228,54.732 53.596,54.848 53.887 C 54.965 54.178,55.272 54.663,55.530 54.964 C 55.848 55.334,56.000 55.697,56.000 56.083 C 56.000 56.494,56.141 56.799,56.500 57.167 C 56.775 57.448,57.000 57.853,57.000 58.066 C 57.000 58.280,57.222 58.734,57.493 59.075 C 57.765 59.417,58.035 59.858,58.094 60.056 C 58.154 60.254,58.348 60.532,58.526 60.674 C 58.755 60.855,58.880 61.224,58.950 61.924 C 59.005 62.470,59.133 62.972,59.233 63.039 C 59.334 63.106,57.298 63.163,54.708 63.164 C 51.679 63.166,50.000 63.107,50.000 63.000 C 50.000 62.763,49.373 62.166,49.125 62.168 C 48.832 62.170,47.730 63.947,47.514 64.767 C 47.415 65.143,47.146 65.653,46.917 65.901 C 46.451 66.403,46.462 66.374,46.601 66.736 C 46.666 66.905,46.906 67.000,47.268 67.000 C 47.603 67.000,47.838 67.085,47.845 67.208 C 47.857 67.440,47.884 67.761,48.155 71.000 C 48.452 74.540,48.830 78.219,48.906 78.295 C 49.089 78.478,49.678 78.098,49.768 77.739 L 49.869 77.333 52.750 77.333 L 55.631 77.333 55.734 77.747 C 55.845 78.188,56.569 78.498,56.845 78.222 C 57.223 77.844,56.932 76.230,56.439 75.970 C 55.940 75.708,55.839 75.508,55.836 74.774 C 55.834 74.334,55.702 73.975,55.417 73.636 C 55.188 73.364,55.000 73.047,55.000 72.933 C 55.000 72.818,54.813 72.549,54.583 72.333 C 54.252 72.022,54.167 71.779,54.167 71.145 C 54.167 70.707,54.076 70.150,53.965 69.906 C 53.582 69.067,54.283 68.826,54.934 69.573 L 55.452 70.167 58.768 70.168 L 62.083 70.170 62.524 69.633 L 62.965 69.097 63.638 69.673 C 64.048 70.025,64.383 70.497,64.497 70.882 C 64.616 71.287,64.822 71.567,65.069 71.661 C 65.340 71.764,65.509 72.026,65.641 72.549 C 65.762 73.031,65.978 73.390,66.258 73.573 C 66.494 73.728,66.830 74.187,67.005 74.594 C 67.179 75.001,67.388 75.333,67.469 75.333 C 67.550 75.333,67.753 75.638,67.921 76.010 C 68.089 76.382,68.368 76.763,68.541 76.855 C 68.714 76.948,68.990 77.337,69.155 77.720 C 69.320 78.103,69.801 78.904,70.223 79.500 C 70.646 80.096,71.152 80.883,71.348 81.250 C 71.544 81.617,71.838 82.067,72.002 82.250 C 72.166 82.433,72.439 82.850,72.608 83.175 C 73.014 83.954,73.497 84.748,73.956 85.393 C 74.161 85.681,74.481 86.245,74.667 86.647 C 74.854 87.048,75.193 87.597,75.420 87.868 C 75.647 88.138,75.833 88.459,75.833 88.580 C 75.833 88.702,76.094 89.114,76.413 89.496 C 77.595 90.910,77.570 91.775,76.330 92.452 C 75.861 92.707,75.051 93.158,74.530 93.452 C 74.009 93.747,73.120 94.214,72.554 94.490 C 71.988 94.766,71.480 95.064,71.426 95.152 C 71.371 95.240,70.935 95.509,70.455 95.750 C 69.023 96.470,68.260 96.897,67.741 97.269 C 67.471 97.462,66.968 97.712,66.624 97.824 C 66.279 97.935,65.924 98.164,65.834 98.332 C 65.744 98.500,65.313 98.769,64.877 98.930 C 64.440 99.091,63.968 99.320,63.828 99.438 C 63.687 99.556,63.162 99.849,62.661 100.087 C 61.424 100.677,59.934 101.525,59.559 101.854 C 59.389 102.003,58.975 102.213,58.638 102.321 C 58.302 102.429,57.930 102.634,57.812 102.776 C 57.693 102.919,57.219 103.203,56.757 103.407 C 56.295 103.612,55.818 103.899,55.697 104.046 C 55.576 104.192,55.268 104.358,55.012 104.414 C 54.756 104.470,54.145 104.775,53.654 105.091 C 53.163 105.408,52.639 105.667,52.490 105.667 C 52.340 105.667,52.075 105.826,51.901 106.022 C 51.726 106.217,51.257 106.517,50.858 106.690 C 50.459 106.862,49.942 107.152,49.710 107.335 C 49.075 107.834,47.609 107.800,47.117 107.275 C 46.915 107.059,46.450 106.786,46.083 106.667 C 45.717 106.549,45.205 106.275,44.946 106.059 C 44.686 105.843,44.376 105.667,44.256 105.667 C 44.136 105.667,43.660 105.407,43.199 105.090 C 42.738 104.773,42.172 104.466,41.943 104.408 C 41.713 104.351,41.398 104.163,41.243 103.992 C 41.088 103.821,40.589 103.557,40.135 103.406 C 39.681 103.255,39.271 103.031,39.223 102.907 C 39.176 102.784,38.788 102.556,38.360 102.401 C 37.933 102.246,37.461 101.982,37.310 101.814 C 37.160 101.646,36.618 101.352,36.105 101.161 C 35.593 100.969,35.126 100.735,35.068 100.642 C 35.010 100.549,34.624 100.327,34.210 100.150 C 33.796 99.972,33.236 99.641,32.966 99.413 C 32.695 99.186,32.366 99.000,32.233 99.000 C 32.101 99.000,31.610 98.737,31.144 98.417 C 30.678 98.096,30.198 97.833,30.077 97.833 C 29.957 97.833,29.647 97.655,29.388 97.437 C 29.129 97.219,28.560 96.873,28.125 96.669 C 27.690 96.464,27.333 96.236,27.333 96.162 C 27.333 96.088,26.940 95.899,26.458 95.743 C 25.977 95.587,25.392 95.281,25.158 95.063 C 24.923 94.845,24.621 94.667,24.485 94.667 C 24.350 94.667,23.831 94.404,23.333 94.083 C 22.835 93.763,22.342 93.500,22.237 93.500 C 22.132 93.500,21.766 93.278,21.425 93.007 C 21.083 92.735,20.642 92.464,20.444 92.404 C 19.328 92.064,19.158 90.026,20.211 89.621 C 20.334 89.574,20.536 89.229,20.660 88.853 C 20.784 88.478,21.030 88.041,21.206 87.881 C 21.383 87.721,21.637 87.329,21.770 87.009 C 21.904 86.690,22.140 86.288,22.296 86.116 C 22.596 85.784,23.153 84.858,23.986 83.304 C 24.264 82.783,24.564 82.313,24.652 82.259 C 24.740 82.205,25.004 81.768,25.240 81.288 C 25.712 80.325,26.302 79.427,26.796 78.917 C 26.974 78.733,27.219 78.305,27.341 77.964 C 27.463 77.624,27.733 77.147,27.941 76.905 C 28.149 76.663,28.406 76.191,28.513 75.857 C 28.620 75.523,28.877 75.063,29.084 74.833 C 29.292 74.604,29.585 74.173,29.735 73.875 C 29.886 73.577,30.083 73.333,30.173 73.333 C 30.264 73.333,30.524 72.940,30.753 72.458 C 30.981 71.977,31.336 71.342,31.542 71.048 C 32.226 70.070,32.792 69.089,32.916 68.667 C 32.983 68.438,33.176 68.099,33.345 67.914 C 33.513 67.730,33.776 67.280,33.928 66.914 C 34.081 66.549,34.422 66.004,34.686 65.703 C 34.950 65.401,35.167 65.057,35.167 64.937 C 35.167 64.817,35.310 64.589,35.485 64.431 C 35.659 64.272,35.960 63.778,36.152 63.331 C 36.344 62.884,36.584 62.468,36.686 62.405 C 36.788 62.342,37.009 61.978,37.178 61.597 C 37.347 61.215,37.676 60.681,37.909 60.410 C 38.142 60.139,38.333 59.791,38.333 59.638 C 38.333 59.484,38.522 59.135,38.752 58.861 C 38.983 58.587,39.278 58.107,39.409 57.793 C 39.540 57.480,39.772 57.120,39.925 56.993 C 40.077 56.867,40.386 56.385,40.611 55.923 C 41.325 54.459,41.829 53.589,42.061 53.415 C 42.185 53.323,42.486 52.854,42.730 52.374 C 42.973 51.893,43.236 51.500,43.313 51.500 C 43.391 51.500,43.585 51.160,43.744 50.743 C 43.903 50.327,44.208 49.779,44.422 49.524 C 44.636 49.269,44.863 48.858,44.925 48.610 C 44.987 48.362,45.176 48.062,45.345 47.944 C 45.514 47.826,45.795 47.395,45.970 46.987 C 46.145 46.579,46.411 46.143,46.563 46.017 C 46.714 45.892,46.974 45.480,47.142 45.103 C 47.474 44.354,47.738 44.080,48.250 43.954 C 48.871 43.801,48.992 43.833,49.235 44.208 M123.778 63.932 C 124.038 64.124,124.644 64.375,125.126 64.491 C 125.646 64.615,126.120 64.850,126.293 65.069 C 126.453 65.272,126.790 65.573,127.043 65.739 C 127.295 65.904,127.655 66.349,127.843 66.728 C 128.030 67.107,128.329 67.679,128.508 68.000 C 129.412 69.623,128.811 70.667,126.974 70.667 C 125.256 70.667,124.529 70.234,124.064 68.937 C 123.961 68.651,123.718 68.335,123.523 68.235 C 123.328 68.135,123.011 67.910,122.817 67.735 C 122.509 67.457,122.198 67.417,120.333 67.417 C 118.469 67.417,118.158 67.457,117.850 67.735 C 117.656 67.910,117.340 68.135,117.147 68.235 C 115.946 68.857,116.234 71.798,117.540 72.246 C 117.883 72.363,118.362 72.590,118.605 72.749 C 118.864 72.919,119.767 73.132,120.802 73.268 C 121.769 73.395,122.867 73.648,123.244 73.830 C 123.620 74.013,124.334 74.239,124.829 74.333 C 125.325 74.427,125.911 74.634,126.131 74.793 C 126.351 74.953,126.743 75.202,127.002 75.347 C 127.625 75.696,128.833 76.964,128.833 77.268 C 128.833 77.400,128.983 77.935,129.167 78.457 C 129.566 79.592,129.633 81.849,129.277 82.144 C 129.154 82.246,128.961 82.746,128.847 83.255 C 128.716 83.839,128.518 84.255,128.310 84.382 C 128.129 84.493,127.834 84.820,127.654 85.108 C 127.458 85.423,127.045 85.745,126.622 85.913 C 126.234 86.067,125.757 86.342,125.562 86.523 C 124.549 87.466,116.306 87.472,115.271 86.530 C 115.076 86.353,114.631 86.076,114.282 85.914 C 113.362 85.487,111.896 83.698,111.748 82.820 C 111.683 82.435,111.493 81.816,111.327 81.444 C 110.781 80.225,111.513 79.667,113.658 79.667 C 115.245 79.667,115.560 79.875,115.734 81.037 C 115.821 81.613,115.942 81.829,116.259 81.974 C 116.486 82.077,116.753 82.341,116.853 82.560 C 117.217 83.360,120.553 83.813,122.583 83.339 C 125.294 82.706,126.040 79.328,123.724 78.169 C 123.464 78.039,123.100 77.803,122.917 77.645 C 122.689 77.450,121.922 77.273,120.502 77.089 C 119.277 76.930,118.250 76.708,118.006 76.548 C 117.779 76.399,117.114 76.177,116.530 76.054 C 115.945 75.932,115.268 75.678,115.025 75.490 C 114.782 75.302,114.323 74.982,114.004 74.778 C 113.685 74.575,113.258 74.148,113.055 73.829 C 112.852 73.511,112.512 73.028,112.301 72.757 C 111.743 72.042,111.642 68.728,112.151 67.833 C 112.334 67.512,112.639 66.936,112.828 66.552 C 113.018 66.168,113.320 65.807,113.499 65.750 C 113.678 65.693,113.959 65.476,114.124 65.267 C 114.512 64.773,114.921 64.566,115.791 64.422 C 116.180 64.357,116.545 64.228,116.602 64.136 C 117.062 63.391,122.826 63.228,123.778 63.932 M231.308 63.954 C 231.584 64.159,232.123 64.376,232.506 64.437 C 233.866 64.654,236.098 66.943,236.610 68.645 C 236.732 69.049,236.900 69.464,236.984 69.565 C 237.842 70.603,237.170 71.544,235.503 71.638 C 233.553 71.748,232.917 71.347,232.593 69.803 C 232.541 69.557,232.361 69.312,232.192 69.258 C 232.022 69.204,231.804 68.984,231.705 68.768 C 231.607 68.553,231.314 68.323,231.055 68.259 C 230.796 68.195,230.409 67.979,230.195 67.779 C 229.719 67.334,226.529 67.154,225.898 67.537 C 225.705 67.654,225.180 67.951,224.731 68.197 C 223.523 68.859,222.497 70.152,222.217 71.366 C 222.091 71.911,221.841 72.632,221.661 72.968 C 221.241 73.751,221.177 77.203,221.572 77.766 C 221.703 77.953,221.960 78.690,222.142 79.404 C 222.352 80.220,222.594 80.785,222.798 80.927 C 222.975 81.052,223.215 81.381,223.331 81.660 C 223.446 81.939,223.627 82.167,223.733 82.167 C 223.839 82.167,224.111 82.377,224.338 82.634 C 225.057 83.450,228.209 83.720,230.378 83.150 C 231.237 82.925,232.393 81.736,232.739 80.722 C 233.392 78.812,236.378 78.370,237.092 80.079 C 237.318 80.620,237.312 80.722,237.017 81.301 C 236.839 81.648,236.641 82.220,236.575 82.571 C 236.509 82.922,236.279 83.406,236.063 83.646 C 235.848 83.887,235.515 84.290,235.324 84.542 C 235.132 84.794,234.887 85.000,234.777 85.000 C 234.668 85.000,234.505 85.169,234.415 85.375 C 234.324 85.581,234.012 85.827,233.721 85.921 C 233.430 86.015,233.055 86.212,232.888 86.358 C 232.314 86.859,231.883 86.984,230.068 87.171 C 227.138 87.475,223.735 87.119,223.014 86.433 C 222.777 86.208,222.363 85.969,222.093 85.902 C 221.531 85.763,219.333 83.670,219.333 83.273 C 219.333 83.129,219.185 82.932,219.003 82.835 C 218.804 82.728,218.565 82.284,218.397 81.709 C 218.246 81.186,217.975 80.560,217.796 80.318 C 216.945 79.167,217.039 71.318,217.914 70.443 C 218.045 70.312,218.241 69.840,218.348 69.394 C 218.459 68.937,218.753 68.362,219.022 68.075 C 219.285 67.796,219.501 67.496,219.502 67.409 C 219.503 67.321,219.920 66.875,220.429 66.417 C 220.937 65.958,221.538 65.416,221.764 65.212 C 222.312 64.716,222.625 64.566,223.411 64.424 C 223.775 64.359,224.262 64.170,224.494 64.005 C 225.423 63.346,230.435 63.309,231.308 63.954 M159.417 63.933 C 159.783 64.072,160.566 64.293,161.155 64.424 C 161.776 64.562,162.407 64.825,162.655 65.049 C 162.891 65.263,163.290 65.525,163.542 65.632 C 163.794 65.739,164.000 65.940,164.000 66.078 C 164.000 66.217,164.221 66.528,164.491 66.768 C 164.761 67.009,165.031 67.441,165.090 67.728 C 165.149 68.015,165.385 68.653,165.614 69.146 C 166.116 70.228,166.143 73.030,165.657 73.608 C 165.514 73.778,165.267 74.344,165.109 74.866 C 164.937 75.436,164.708 75.851,164.536 75.907 C 164.379 75.958,164.121 76.226,163.964 76.502 C 163.807 76.779,163.545 77.053,163.381 77.111 C 163.217 77.168,162.883 77.400,162.639 77.625 C 162.368 77.876,161.784 78.126,161.139 78.268 C 160.558 78.396,159.746 78.586,159.333 78.690 C 158.921 78.794,157.421 78.912,156.000 78.952 C 152.561 79.048,152.833 78.708,152.833 82.917 C 152.833 87.057,152.581 87.400,149.773 87.076 C 148.022 86.874,148.167 87.897,148.167 75.734 C 148.167 64.077,148.163 64.115,149.145 63.900 C 149.386 63.847,149.658 63.779,149.750 63.749 C 150.366 63.543,158.811 63.705,159.417 63.933 M198.826 64.134 C 199.576 64.884,199.704 66.651,199.047 67.197 C 198.846 67.364,197.547 67.437,193.600 67.500 L 188.417 67.583 188.333 70.250 C 188.287 71.717,188.277 73.010,188.309 73.125 C 188.355 73.285,189.440 73.333,193.009 73.333 C 197.633 73.333,197.650 73.335,198.102 73.724 C 198.753 74.284,198.774 75.969,198.137 76.605 L 197.719 77.024 193.068 77.053 L 188.417 77.083 188.332 80.000 C 188.285 81.604,188.311 83.008,188.389 83.119 C 188.493 83.268,189.959 83.333,194.029 83.369 C 200.441 83.425,200.000 83.284,200.000 85.278 C 200.000 87.179,200.430 87.073,192.424 87.135 C 185.490 87.188,184.846 87.156,184.422 86.732 C 184.041 86.350,184.035 65.237,184.417 64.500 C 184.841 63.680,184.863 63.677,191.804 63.672 L 198.359 63.667 198.826 64.134 M271.626 63.996 C 272.440 64.365,272.667 64.802,272.667 65.999 C 272.667 67.381,272.376 67.500,268.991 67.500 L 266.194 67.500 265.847 68.061 C 265.507 68.611,265.500 68.800,265.500 77.303 C 265.500 87.783,265.618 87.342,262.875 87.122 C 261.111 86.980,261.262 87.871,261.167 77.036 L 261.083 67.583 258.067 67.500 C 254.450 67.400,254.500 67.424,254.500 65.826 C 254.500 64.849,254.560 64.621,254.931 64.179 L 255.363 63.667 263.140 63.670 C 270.466 63.674,270.958 63.693,271.626 63.996 M301.423 63.936 C 301.970 64.084,302.858 64.302,303.397 64.420 C 304.051 64.563,304.512 64.779,304.779 65.067 C 305.000 65.305,305.242 65.500,305.318 65.500 C 305.543 65.500,307.000 67.025,307.000 67.260 C 307.000 67.379,307.101 67.577,307.224 67.700 C 308.136 68.613,308.333 73.667,307.489 74.511 C 307.316 74.684,307.069 75.078,306.940 75.386 C 306.665 76.044,305.452 77.333,305.108 77.333 C 304.976 77.333,304.826 77.446,304.773 77.584 C 304.720 77.721,304.412 77.960,304.087 78.115 C 303.420 78.433,303.418 78.766,304.079 79.500 C 304.286 79.729,304.538 80.166,304.640 80.471 C 304.741 80.776,305.018 81.255,305.254 81.536 C 305.491 81.817,305.728 82.266,305.782 82.535 C 305.836 82.803,306.051 83.135,306.261 83.273 C 306.471 83.410,306.752 83.843,306.886 84.235 C 307.019 84.626,307.324 85.142,307.564 85.382 C 308.551 86.369,307.907 87.044,305.959 87.067 L 304.527 87.083 303.853 86.417 C 303.482 86.050,303.133 85.550,303.079 85.306 C 303.024 85.061,302.764 84.635,302.500 84.359 C 302.236 84.083,301.970 83.593,301.909 83.270 C 301.844 82.922,301.639 82.578,301.407 82.425 C 301.187 82.281,300.922 81.855,300.806 81.459 C 300.691 81.069,300.462 80.651,300.296 80.531 C 300.131 80.410,299.890 80.060,299.762 79.753 C 299.487 79.096,298.570 78.898,296.430 79.036 C 294.717 79.145,294.833 78.870,294.833 82.825 C 294.833 87.156,294.900 87.020,292.772 87.057 C 290.453 87.098,290.667 88.244,290.667 75.742 C 290.667 64.986,290.686 64.648,291.327 64.007 C 291.792 63.541,299.760 63.485,301.423 63.936 M338.997 64.255 C 339.647 64.693,339.767 64.869,339.914 65.597 C 340.007 66.058,340.244 66.637,340.440 66.884 C 340.637 67.131,340.879 67.795,340.979 68.360 C 341.082 68.949,341.301 69.538,341.491 69.740 C 341.673 69.934,341.914 70.503,342.026 71.005 C 342.138 71.506,342.361 72.090,342.522 72.303 C 342.684 72.515,342.942 73.256,343.096 73.949 C 343.250 74.643,343.510 75.343,343.673 75.507 C 343.837 75.670,344.058 76.241,344.166 76.777 C 344.274 77.312,344.540 78.012,344.758 78.333 C 344.975 78.654,345.240 79.329,345.345 79.833 C 345.451 80.337,345.629 80.862,345.741 81.000 C 346.014 81.334,346.288 82.077,346.499 83.053 C 346.595 83.494,346.819 84.057,346.997 84.303 C 347.826 85.446,347.693 86.862,346.734 87.102 C 344.691 87.615,343.042 86.696,342.663 84.833 C 342.561 84.329,342.300 83.578,342.084 83.164 C 341.868 82.750,341.600 82.037,341.490 81.580 C 341.379 81.124,341.151 80.519,340.982 80.237 C 340.813 79.955,340.556 79.211,340.411 78.584 C 340.265 77.957,340.005 77.264,339.833 77.045 C 339.660 76.826,339.433 76.220,339.328 75.698 C 339.223 75.177,338.960 74.487,338.744 74.167 C 338.524 73.841,338.277 73.122,338.184 72.538 C 338.092 71.963,337.871 71.287,337.693 71.036 C 337.514 70.786,337.282 70.262,337.177 69.873 C 336.936 68.975,336.753 68.979,336.525 69.888 C 336.425 70.285,336.194 70.799,336.012 71.030 C 335.830 71.261,335.569 71.989,335.432 72.647 C 335.295 73.305,335.038 74.047,334.861 74.296 C 334.684 74.546,334.449 75.200,334.338 75.750 C 334.228 76.300,333.962 77.012,333.747 77.333 C 333.533 77.654,333.277 78.362,333.179 78.906 C 333.080 79.450,332.856 80.050,332.681 80.239 C 332.505 80.429,332.280 81.030,332.180 81.575 C 332.080 82.121,331.819 82.833,331.598 83.158 C 331.378 83.484,331.145 84.087,331.080 84.500 C 330.740 86.672,329.163 87.662,326.932 87.102 C 325.977 86.862,325.831 84.736,326.734 84.215 C 326.860 84.143,327.052 83.633,327.162 83.083 C 327.272 82.533,327.537 81.821,327.750 81.500 C 327.963 81.179,328.227 80.471,328.337 79.927 C 328.447 79.383,328.709 78.670,328.920 78.344 C 329.131 78.017,329.356 77.412,329.421 77.000 C 329.553 76.159,329.778 75.645,330.096 75.457 C 330.214 75.387,330.361 74.918,330.424 74.414 C 330.495 73.846,330.714 73.230,331.002 72.791 C 331.256 72.402,331.519 71.746,331.585 71.333 C 331.720 70.493,331.945 69.978,332.260 69.792 C 332.376 69.723,332.520 69.348,332.580 68.958 C 332.739 67.931,333.007 67.136,333.338 66.710 C 333.498 66.505,333.680 65.990,333.744 65.565 C 334.020 63.725,337.079 62.962,338.997 64.255 M369.562 64.318 L 370.083 64.840 370.123 73.871 L 370.163 82.903 370.540 83.112 C 370.816 83.266,372.168 83.323,375.617 83.327 C 381.434 83.335,381.245 83.275,381.444 85.180 C 381.651 87.159,381.407 87.214,372.726 87.138 C 366.914 87.087,366.513 87.064,366.184 86.766 C 365.678 86.307,365.625 64.961,366.129 64.338 C 366.801 63.509,368.741 63.498,369.562 64.318 M153.016 68.025 C 152.797 68.653,152.770 74.808,152.985 75.147 C 153.454 75.888,159.361 74.969,160.488 73.979 C 162.063 72.597,161.538 68.714,159.716 68.256 C 159.472 68.195,158.972 68.000,158.605 67.823 C 158.041 67.550,157.570 67.500,155.568 67.500 L 153.199 67.500 153.016 68.025 M294.934 67.764 C 294.775 68.179,294.822 74.890,294.986 75.149 C 295.290 75.629,299.327 75.306,301.173 74.654 L 302.750 74.097 303.292 72.986 C 304.254 71.012,303.558 68.819,301.788 68.251 C 301.259 68.081,300.743 67.842,300.643 67.721 C 300.348 67.366,295.072 67.405,294.934 67.764 " stroke="none" fill="#fbfbfb" fill-rule="evenodd"></path><path id="path1" d="M118.667 64.271 C 117.662 64.583,116.655 64.840,116.121 64.921 C 115.776 64.973,115.251 65.222,114.955 65.474 C 114.659 65.725,114.225 66.051,113.991 66.198 C 113.747 66.351,113.465 66.766,113.333 67.169 C 113.205 67.556,112.948 68.066,112.762 68.303 C 112.143 69.090,112.180 70.791,112.846 72.136 C 113.357 73.169,114.668 74.667,115.062 74.667 C 115.155 74.667,115.499 74.851,115.824 75.076 C 116.229 75.356,116.892 75.564,117.917 75.731 C 118.742 75.866,119.668 76.103,119.974 76.258 C 120.281 76.413,121.083 76.602,121.757 76.678 C 124.647 77.002,126.039 78.768,125.496 81.423 C 125.331 82.229,124.247 83.667,123.804 83.667 C 123.717 83.667,123.232 83.863,122.725 84.102 C 120.269 85.264,115.692 83.681,115.234 81.510 C 115.014 80.469,114.910 80.375,113.841 80.251 C 112.107 80.050,111.807 80.523,112.255 82.750 C 112.361 83.276,114.359 85.291,115.069 85.588 C 115.422 85.736,115.933 86.020,116.203 86.220 C 116.810 86.669,123.532 86.785,124.333 86.360 C 124.563 86.239,125.209 85.902,125.771 85.612 C 126.488 85.241,127.034 84.785,127.604 84.083 L 128.417 83.083 128.473 81.011 C 128.553 78.014,128.473 77.655,127.496 76.662 C 127.047 76.206,126.575 75.833,126.446 75.833 C 126.318 75.833,125.936 75.614,125.599 75.346 C 125.115 74.961,124.750 74.835,123.868 74.746 C 123.250 74.684,122.352 74.450,121.860 74.222 C 121.300 73.962,120.449 73.756,119.563 73.665 C 118.436 73.548,118.056 73.436,117.661 73.104 C 117.390 72.876,117.030 72.646,116.860 72.592 C 115.998 72.318,115.179 70.192,115.573 69.250 C 116.316 67.471,117.618 66.764,120.167 66.756 C 123.012 66.746,123.921 67.170,124.952 68.986 C 125.557 70.050,125.752 70.167,126.928 70.167 C 128.321 70.167,128.749 69.473,127.945 68.521 C 127.838 68.395,127.563 67.896,127.333 67.414 C 126.758 66.203,125.304 65.036,124.115 64.829 C 123.639 64.747,122.882 64.564,122.432 64.423 C 121.669 64.184,119.259 64.087,118.667 64.271 M225.917 64.428 C 225.458 64.560,224.680 64.740,224.187 64.828 C 223.694 64.917,223.105 65.123,222.878 65.286 C 222.650 65.450,222.226 65.733,221.935 65.917 C 221.241 66.353,220.129 67.474,219.867 68.000 C 219.753 68.229,219.480 68.662,219.260 68.962 C 219.041 69.262,218.809 69.825,218.744 70.212 C 218.680 70.600,218.494 71.179,218.332 71.500 C 217.614 72.921,217.581 77.782,218.279 79.202 C 218.402 79.450,218.619 80.158,218.762 80.775 C 218.912 81.421,219.211 82.138,219.469 82.469 C 220.251 83.469,222.399 85.500,222.676 85.500 C 222.823 85.500,223.310 85.743,223.759 86.040 C 225.111 86.936,230.932 86.956,231.987 86.069 C 232.251 85.847,232.717 85.615,233.022 85.554 C 233.556 85.447,235.167 84.071,235.167 83.721 C 235.167 83.635,235.351 83.315,235.576 83.010 C 236.184 82.186,236.450 80.739,236.072 80.321 C 235.430 79.611,233.462 80.204,233.249 81.171 C 232.833 83.064,228.826 85.009,226.667 84.365 C 223.970 83.561,222.884 82.634,221.552 80.000 L 220.920 78.750 220.864 75.707 L 220.807 72.664 221.320 71.611 C 221.602 71.031,221.833 70.438,221.833 70.292 C 221.833 69.967,223.161 68.373,223.811 67.917 C 224.073 67.733,224.468 67.454,224.691 67.296 C 226.984 65.666,232.324 67.198,233.158 69.725 C 233.489 70.726,234.987 71.453,235.810 71.012 C 237.232 70.252,235.317 66.779,232.491 64.991 C 232.358 64.907,232.025 64.837,231.750 64.835 C 231.475 64.833,230.762 64.682,230.167 64.500 C 228.890 64.110,227.129 64.080,225.917 64.428 M149.439 65.012 L 149.000 65.358 149.000 75.756 C 149.000 87.611,148.841 86.500,150.539 86.500 C 151.855 86.500,151.833 86.562,151.834 82.758 C 151.836 78.007,151.824 78.021,155.917 77.995 C 159.687 77.972,161.249 77.802,161.804 77.352 C 162.049 77.154,162.491 76.881,162.786 76.746 C 163.080 76.611,163.408 76.332,163.514 76.125 C 163.621 75.919,163.877 75.563,164.084 75.333 C 165.331 73.951,165.383 68.834,164.163 67.417 C 164.006 67.233,163.773 66.865,163.647 66.598 C 163.497 66.283,163.200 66.039,162.801 65.902 C 162.463 65.786,161.954 65.519,161.670 65.310 C 160.672 64.572,150.319 64.320,149.439 65.012 M184.942 64.971 C 184.585 65.366,184.512 85.946,184.867 86.300 C 185.129 86.562,198.357 86.588,198.844 86.327 C 199.281 86.094,199.269 85.175,198.821 84.606 L 198.476 84.167 193.517 84.167 L 188.558 84.167 188.183 83.768 C 187.682 83.234,187.627 77.171,188.119 76.628 C 188.373 76.347,188.739 76.325,192.899 76.339 L 197.405 76.354 197.613 75.754 C 197.776 75.281,197.778 75.028,197.619 74.559 L 197.417 73.965 192.907 73.989 C 187.250 74.020,187.783 74.398,187.822 70.385 C 187.860 66.430,187.225 66.833,193.409 66.833 C 198.919 66.833,198.833 66.849,198.833 65.826 C 198.833 64.638,199.009 64.667,191.721 64.667 C 185.633 64.667,185.201 64.686,184.942 64.971 M255.207 64.998 C 254.943 65.420,254.939 66.373,255.200 66.633 C 255.340 66.773,256.257 66.833,258.258 66.833 C 262.196 66.833,261.732 65.517,261.833 76.976 L 261.917 86.417 263.140 86.466 C 264.998 86.541,264.833 87.476,264.833 76.839 C 264.833 65.648,264.395 66.938,268.226 66.866 C 271.403 66.807,271.833 66.693,271.833 65.909 C 271.833 64.648,271.961 64.667,263.184 64.667 C 255.612 64.667,255.408 64.675,255.207 64.998 M291.516 64.971 C 291.385 65.216,291.343 68.390,291.374 75.866 L 291.417 86.417 292.410 86.468 C 294.290 86.564,294.141 86.886,294.199 82.587 C 294.264 77.806,294.080 78.083,297.186 78.083 C 299.605 78.083,299.537 78.053,300.417 79.504 C 300.600 79.807,301.028 80.511,301.369 81.069 C 301.709 81.627,302.134 82.394,302.313 82.773 C 302.492 83.153,302.729 83.519,302.838 83.586 C 302.948 83.654,303.215 84.112,303.433 84.605 C 303.651 85.097,303.889 85.500,303.962 85.500 C 304.035 85.500,304.228 85.725,304.390 86.000 C 304.676 86.484,304.726 86.500,305.916 86.500 C 307.257 86.500,307.535 86.332,307.060 85.808 C 306.688 85.396,305.987 84.214,305.434 83.064 C 305.209 82.595,304.914 82.169,304.779 82.118 C 304.645 82.066,304.408 81.644,304.254 81.180 C 304.100 80.715,303.881 80.279,303.768 80.209 C 303.655 80.140,303.361 79.717,303.114 79.269 C 302.566 78.276,302.704 78.069,304.692 76.901 C 305.280 76.555,306.497 75.250,306.499 74.963 C 306.499 74.806,306.680 74.281,306.901 73.797 C 308.344 70.630,306.442 65.978,303.294 64.971 C 302.084 64.584,291.723 64.584,291.516 64.971 M335.281 64.825 C 334.529 65.069,334.381 65.281,334.165 66.424 C 334.053 67.018,333.819 67.686,333.644 67.908 C 333.469 68.129,333.241 68.735,333.137 69.254 C 333.033 69.773,332.770 70.459,332.552 70.780 C 332.335 71.100,332.076 71.750,331.977 72.223 C 331.878 72.696,331.647 73.247,331.464 73.446 C 331.281 73.646,331.025 74.315,330.896 74.932 C 330.766 75.549,330.516 76.288,330.339 76.574 C 330.162 76.860,329.935 77.467,329.835 77.922 C 329.734 78.377,329.441 79.162,329.183 79.667 C 328.925 80.171,328.668 80.881,328.612 81.244 C 328.555 81.608,328.357 82.112,328.171 82.363 C 327.985 82.615,327.731 83.255,327.607 83.786 C 327.483 84.316,327.187 85.036,326.950 85.385 C 326.290 86.356,326.459 86.522,328.054 86.465 L 329.401 86.417 329.948 85.494 C 330.249 84.986,330.572 84.161,330.666 83.661 C 330.760 83.160,330.987 82.546,331.170 82.297 C 331.353 82.047,331.620 81.335,331.764 80.713 C 331.908 80.092,332.160 79.358,332.324 79.083 C 332.488 78.808,332.710 78.221,332.817 77.777 C 332.924 77.334,333.234 76.555,333.506 76.045 C 333.778 75.536,334.000 74.902,334.000 74.636 C 334.000 74.371,334.220 73.725,334.489 73.202 C 334.758 72.678,335.028 71.898,335.089 71.468 C 335.153 71.026,335.340 70.561,335.521 70.397 C 335.697 70.238,335.955 69.715,336.095 69.235 C 336.475 67.926,337.472 67.713,337.496 68.935 C 337.498 69.037,337.687 69.396,337.916 69.733 C 338.144 70.070,338.436 70.849,338.565 71.464 C 338.693 72.080,338.994 72.951,339.232 73.400 C 339.471 73.849,339.667 74.457,339.667 74.752 C 339.667 75.056,339.857 75.567,340.107 75.935 C 340.350 76.292,340.646 77.005,340.767 77.519 C 340.887 78.034,341.176 78.814,341.410 79.253 C 341.643 79.691,341.833 80.218,341.833 80.425 C 341.833 80.631,342.044 81.201,342.302 81.691 C 342.560 82.182,342.861 83.033,342.970 83.583 C 343.080 84.133,343.316 84.782,343.494 85.025 C 343.673 85.268,343.868 85.662,343.928 85.901 C 344.060 86.429,344.414 86.534,345.837 86.467 C 347.053 86.410,347.310 86.103,346.693 85.443 C 346.508 85.245,346.227 84.558,346.068 83.917 C 345.910 83.275,345.644 82.574,345.478 82.358 C 345.311 82.143,345.130 81.693,345.074 81.358 C 344.914 80.403,344.640 79.619,344.309 79.167 C 344.141 78.938,343.930 78.356,343.839 77.874 C 343.749 77.392,343.520 76.788,343.330 76.531 C 343.141 76.275,342.877 75.598,342.743 75.027 C 342.610 74.455,342.356 73.784,342.179 73.536 C 342.002 73.287,341.773 72.657,341.669 72.135 C 341.565 71.614,341.332 70.998,341.149 70.766 C 340.967 70.534,340.720 69.874,340.599 69.298 C 340.479 68.721,340.191 67.972,339.960 67.631 C 339.708 67.261,339.494 66.647,339.426 66.101 C 339.363 65.600,339.209 65.104,339.082 64.999 C 338.789 64.756,335.902 64.623,335.281 64.825 M367.125 64.929 L 366.667 65.177 366.667 75.737 C 366.667 85.213,366.694 86.308,366.930 86.399 C 367.468 86.605,380.088 86.512,380.300 86.300 C 380.612 85.988,380.535 85.090,380.155 84.606 L 379.809 84.167 375.382 84.167 C 372.467 84.167,370.732 84.100,370.300 83.970 C 369.134 83.621,369.167 83.909,369.167 74.020 C 369.167 66.215,369.136 65.160,368.905 64.929 C 368.578 64.601,367.728 64.601,367.125 64.929 M160.167 67.670 L 161.417 68.417 161.858 69.667 C 162.421 71.264,162.427 71.665,161.907 73.026 C 161.436 74.258,161.422 74.274,160.047 75.137 L 159.083 75.742 155.913 75.800 C 152.877 75.855,152.723 75.843,152.288 75.500 L 151.833 75.142 151.850 71.696 C 151.875 66.597,151.710 66.784,156.083 66.868 L 158.917 66.922 160.167 67.670 M301.896 67.417 C 303.528 68.421,304.348 69.530,304.455 70.879 C 304.538 71.922,304.280 73.333,304.007 73.333 C 303.927 73.333,303.705 73.585,303.515 73.892 C 303.325 74.199,302.701 74.743,302.127 75.100 L 301.083 75.750 298.033 75.805 C 295.451 75.852,294.920 75.819,294.574 75.593 L 294.167 75.326 294.167 71.425 L 294.167 67.524 294.622 67.166 C 295.056 66.825,295.217 66.810,298.080 66.862 L 301.083 66.917 301.896 67.417 " stroke="none" fill="#12161d" fill-rule="evenodd"></path><path id="path2" d="M28.000 78.687 C 28.000 78.981,28.042 79.006,28.248 78.835 C 28.499 78.627,28.446 78.333,28.157 78.333 C 28.071 78.333,28.000 78.493,28.000 78.687 M26.833 80.744 C 26.833 81.385,26.997 81.479,27.406 81.070 C 27.701 80.776,27.636 80.585,27.157 80.328 C 26.865 80.172,26.833 80.212,26.833 80.744 M25.753 81.662 C 25.698 81.751,25.670 82.111,25.690 82.462 C 25.737 83.256,25.593 83.500,25.077 83.500 C 24.772 83.500,24.648 83.612,24.573 83.958 C 24.397 84.761,24.350 84.835,23.921 84.998 C 23.667 85.095,23.500 85.289,23.500 85.488 C 23.500 85.903,23.159 86.667,22.973 86.667 C 22.679 86.667,22.167 87.352,22.167 87.746 C 22.167 88.002,22.009 88.262,21.751 88.431 C 21.520 88.583,21.247 88.998,21.136 89.368 C 21.027 89.734,20.764 90.147,20.552 90.286 C 19.933 90.692,20.005 91.726,20.672 92.002 C 20.950 92.117,21.450 92.428,21.783 92.693 C 22.116 92.958,22.582 93.221,22.819 93.277 C 23.056 93.334,23.546 93.595,23.908 93.857 C 24.270 94.119,24.691 94.333,24.843 94.333 C 24.996 94.333,25.392 94.549,25.724 94.813 C 26.056 95.077,26.663 95.377,27.072 95.480 C 27.482 95.583,27.877 95.770,27.950 95.895 C 28.023 96.021,28.421 96.294,28.833 96.503 C 29.245 96.711,29.657 96.982,29.749 97.103 C 29.841 97.225,30.246 97.439,30.649 97.580 C 31.051 97.720,31.555 98.010,31.768 98.223 C 31.982 98.436,32.446 98.698,32.801 98.804 C 33.156 98.910,33.580 99.145,33.743 99.326 C 33.907 99.506,34.312 99.741,34.645 99.848 C 34.978 99.955,35.365 100.142,35.506 100.265 C 35.647 100.387,36.131 100.650,36.581 100.849 C 37.031 101.049,37.516 101.341,37.658 101.499 C 37.800 101.656,38.278 101.917,38.721 102.078 C 39.163 102.239,39.561 102.466,39.606 102.583 C 39.651 102.701,40.133 102.959,40.677 103.157 C 41.222 103.356,41.667 103.581,41.667 103.658 C 41.667 103.734,41.985 103.924,42.375 104.079 C 42.765 104.233,43.233 104.498,43.417 104.666 C 43.600 104.834,44.172 105.158,44.687 105.384 C 45.202 105.611,45.672 105.874,45.731 105.969 C 45.790 106.064,46.118 106.232,46.461 106.340 C 46.803 106.449,47.255 106.717,47.465 106.936 C 47.945 107.436,48.824 107.471,49.244 107.007 C 49.406 106.827,49.900 106.561,50.340 106.414 C 50.781 106.268,51.236 106.035,51.351 105.895 C 51.467 105.756,51.866 105.487,52.239 105.298 C 52.612 105.109,53.096 104.814,53.314 104.644 C 53.533 104.473,53.843 104.333,54.004 104.333 C 54.164 104.333,54.662 104.081,55.110 103.773 C 55.558 103.465,56.110 103.157,56.337 103.087 C 56.564 103.018,56.900 102.827,57.083 102.661 C 57.267 102.496,57.829 102.165,58.333 101.925 C 59.644 101.302,60.873 100.566,61.083 100.279 C 61.182 100.143,61.565 99.950,61.934 99.851 C 62.303 99.752,62.774 99.491,62.980 99.271 C 63.195 99.042,63.640 98.827,64.024 98.766 C 64.460 98.696,64.848 98.489,65.138 98.171 C 65.383 97.903,65.847 97.574,66.170 97.439 C 66.493 97.304,66.888 97.050,67.047 96.873 C 67.207 96.696,67.636 96.453,68.000 96.333 C 68.364 96.213,68.772 95.948,68.905 95.744 C 69.045 95.531,69.401 95.326,69.747 95.262 C 70.101 95.195,70.526 94.948,70.784 94.658 C 71.060 94.348,71.385 94.167,71.662 94.167 C 72.200 94.167,72.619 93.863,72.696 93.417 C 72.741 93.155,72.923 93.064,73.537 92.993 C 73.967 92.943,74.341 92.868,74.368 92.826 C 74.395 92.784,74.496 92.607,74.592 92.432 C 74.689 92.256,75.120 92.010,75.550 91.885 C 75.981 91.759,76.333 91.596,76.333 91.522 C 76.333 91.131,74.634 90.816,74.417 91.167 C 74.350 91.275,70.874 91.333,64.532 91.332 C 54.257 91.331,52.400 91.433,51.799 92.034 C 51.604 92.230,51.250 92.333,50.781 92.333 C 50.160 92.333,49.986 92.418,49.514 92.952 L 48.966 93.570 48.743 93.160 C 48.620 92.935,48.474 92.337,48.419 91.833 C 48.038 88.350,47.772 86.844,47.517 86.726 C 47.370 86.657,44.912 86.560,42.055 86.509 C 37.130 86.421,36.840 86.399,36.472 86.076 C 35.975 85.640,35.348 85.329,34.690 85.192 C 34.185 85.086,34.177 85.071,34.405 84.631 C 34.610 84.238,34.734 83.374,34.683 82.708 C 34.670 82.548,33.768 82.500,30.771 82.500 L 26.875 82.500 26.775 82.000 C 26.674 81.493,25.996 81.269,25.753 81.662 " stroke="none" fill="#ef4423" fill-rule="evenodd"></path><path id="path3" d="M44.445 68.684 L 43.474 69.185 38.511 69.172 C 34.164 69.159,33.521 69.191,33.328 69.423 C 33.207 69.569,32.902 69.795,32.650 69.925 C 32.106 70.206,31.329 71.244,30.753 72.458 C 30.524 72.940,30.264 73.333,30.173 73.333 C 30.083 73.333,29.886 73.577,29.735 73.875 C 29.585 74.173,29.292 74.604,29.084 74.833 C 28.877 75.063,28.620 75.523,28.513 75.857 C 28.406 76.191,28.149 76.663,27.941 76.905 C 27.733 77.147,27.463 77.624,27.341 77.964 C 27.219 78.305,26.974 78.733,26.796 78.917 C 26.302 79.427,25.712 80.325,25.240 81.288 C 25.004 81.768,24.740 82.205,24.652 82.259 C 24.564 82.313,24.264 82.783,23.986 83.304 C 23.153 84.858,22.596 85.784,22.296 86.116 C 22.140 86.288,21.904 86.690,21.770 87.009 C 21.637 87.329,21.383 87.721,21.206 87.881 C 21.030 88.041,20.784 88.478,20.660 88.853 C 20.536 89.229,20.334 89.574,20.211 89.621 C 19.158 90.026,19.328 92.064,20.444 92.404 C 20.642 92.464,21.083 92.735,21.425 93.007 C 21.766 93.278,22.132 93.500,22.237 93.500 C 22.342 93.500,22.835 93.763,23.333 94.083 C 23.831 94.404,24.350 94.667,24.485 94.667 C 24.621 94.667,24.923 94.845,25.158 95.063 C 25.392 95.281,25.977 95.587,26.458 95.743 C 26.940 95.899,27.333 96.088,27.333 96.162 C 27.333 96.236,27.690 96.464,28.125 96.669 C 28.560 96.873,29.129 97.219,29.388 97.437 C 29.647 97.655,29.957 97.833,30.077 97.833 C 30.198 97.833,30.678 98.096,31.144 98.417 C 31.610 98.737,32.101 99.000,32.233 99.000 C 32.366 99.000,32.695 99.186,32.966 99.413 C 33.236 99.641,33.796 99.972,34.210 100.150 C 34.624 100.327,35.010 100.549,35.068 100.642 C 35.126 100.735,35.593 100.969,36.105 101.161 C 36.618 101.352,37.160 101.646,37.310 101.814 C 37.461 101.982,37.933 102.246,38.360 102.401 C 38.788 102.556,39.176 102.784,39.223 102.907 C 39.271 103.031,39.681 103.255,40.135 103.406 C 40.589 103.557,41.088 103.821,41.243 103.992 C 41.398 104.163,41.713 104.351,41.943 104.408 C 42.172 104.466,42.738 104.773,43.199 105.090 C 43.660 105.407,44.136 105.667,44.256 105.667 C 44.376 105.667,44.686 105.843,44.946 106.059 C 45.205 106.275,45.717 106.549,46.083 106.667 C 46.450 106.786,46.915 107.059,47.117 107.275 C 47.609 107.800,49.075 107.834,49.710 107.335 C 49.942 107.152,50.459 106.862,50.858 106.690 C 51.257 106.517,51.726 106.217,51.901 106.022 C 52.075 105.826,52.340 105.667,52.490 105.667 C 52.639 105.667,53.163 105.408,53.654 105.091 C 54.145 104.775,54.756 104.470,55.012 104.414 C 55.268 104.358,55.576 104.192,55.697 104.046 C 55.818 103.899,56.295 103.612,56.757 103.407 C 57.219 103.203,57.693 102.919,57.812 102.776 C 57.930 102.634,58.302 102.429,58.638 102.321 C 58.975 102.213,59.389 102.003,59.559 101.854 C 59.934 101.525,61.424 100.677,62.661 100.087 C 63.162 99.849,63.687 99.556,63.828 99.438 C 63.968 99.320,64.440 99.091,64.877 98.930 C 65.313 98.769,65.744 98.500,65.834 98.332 C 65.924 98.164,66.279 97.935,66.624 97.824 C 66.968 97.712,67.471 97.462,67.741 97.269 C 68.260 96.897,69.023 96.470,70.455 95.750 C 70.935 95.509,71.371 95.240,71.426 95.152 C 71.480 95.064,71.988 94.766,72.554 94.490 C 73.120 94.214,74.009 93.747,74.530 93.452 C 75.051 93.158,75.861 92.707,76.330 92.452 C 77.570 91.775,77.595 90.910,76.413 89.496 C 76.094 89.114,75.833 88.702,75.833 88.580 C 75.833 88.459,75.647 88.138,75.420 87.868 C 75.193 87.597,74.854 87.048,74.667 86.647 C 74.481 86.245,74.161 85.681,73.956 85.393 C 73.497 84.748,73.014 83.954,72.608 83.175 C 72.439 82.850,72.166 82.433,72.002 82.250 C 71.838 82.067,71.544 81.617,71.348 81.250 C 71.152 80.883,70.646 80.096,70.223 79.500 C 69.801 78.904,69.320 78.103,69.155 77.720 C 68.990 77.337,68.714 76.948,68.541 76.855 C 68.368 76.763,68.089 76.382,67.921 76.010 C 67.753 75.638,67.550 75.333,67.469 75.333 C 67.388 75.333,67.179 75.001,67.005 74.594 C 66.830 74.187,66.494 73.728,66.258 73.573 C 65.978 73.390,65.762 73.031,65.641 72.549 C 65.509 72.026,65.340 71.764,65.069 71.661 C 64.822 71.567,64.616 71.287,64.497 70.882 C 64.383 70.497,64.048 70.025,63.638 69.673 L 62.965 69.097 62.524 69.633 L 62.083 70.170 58.768 70.168 L 55.452 70.167 54.934 69.573 C 54.283 68.826,53.582 69.067,53.965 69.906 C 54.076 70.150,54.167 70.707,54.167 71.145 C 54.167 71.779,54.252 72.022,54.583 72.333 C 54.813 72.549,55.000 72.818,55.000 72.933 C 55.000 73.047,55.188 73.364,55.417 73.636 C 55.702 73.975,55.834 74.334,55.836 74.774 C 55.839 75.508,55.940 75.708,56.439 75.970 C 56.932 76.230,57.223 77.844,56.845 78.222 C 56.569 78.498,55.845 78.188,55.734 77.747 L 55.631 77.333 52.750 77.333 L 49.869 77.333 49.768 77.739 C 49.678 78.096,49.089 78.478,48.908 78.297 C 48.801 78.190,48.363 73.749,48.247 71.583 C 48.188 70.483,48.061 69.265,47.966 68.875 L 47.794 68.167 46.605 68.175 C 45.620 68.181,45.250 68.268,44.445 68.684 M28.405 78.481 C 28.455 78.562,28.385 78.722,28.248 78.835 C 28.042 79.006,28.000 78.981,28.000 78.687 C 28.000 78.330,28.237 78.209,28.405 78.481 M27.576 80.654 C 27.679 80.821,27.236 81.333,26.988 81.333 C 26.903 81.333,26.833 81.068,26.833 80.744 C 26.833 80.164,27.242 80.115,27.576 80.654 M26.775 82.000 L 26.875 82.500 30.771 82.500 C 33.768 82.500,34.670 82.548,34.683 82.708 C 34.734 83.374,34.610 84.238,34.405 84.631 C 34.177 85.071,34.185 85.086,34.690 85.192 C 35.348 85.329,35.975 85.640,36.472 86.076 C 36.840 86.399,37.130 86.421,42.055 86.509 C 44.912 86.560,47.370 86.657,47.517 86.726 C 47.772 86.844,48.038 88.350,48.419 91.833 C 48.474 92.337,48.620 92.935,48.743 93.160 L 48.966 93.570 49.514 92.952 C 49.986 92.418,50.160 92.333,50.781 92.333 C 51.250 92.333,51.604 92.230,51.799 92.034 C 52.400 91.433,54.257 91.331,64.532 91.332 C 70.874 91.333,74.350 91.275,74.417 91.167 C 74.634 90.816,76.333 91.131,76.333 91.522 C 76.333 91.596,75.981 91.759,75.550 91.885 C 75.120 92.010,74.689 92.256,74.592 92.432 C 74.496 92.607,74.395 92.784,74.368 92.826 C 74.341 92.868,73.967 92.943,73.537 92.993 C 72.923 93.064,72.741 93.155,72.696 93.417 C 72.619 93.863,72.200 94.167,71.662 94.167 C 71.385 94.167,71.060 94.348,70.784 94.658 C 70.526 94.948,70.101 95.195,69.747 95.262 C 69.401 95.326,69.045 95.531,68.905 95.744 C 68.772 95.948,68.364 96.213,68.000 96.333 C 67.636 96.453,67.207 96.696,67.047 96.873 C 66.888 97.050,66.493 97.304,66.170 97.439 C 65.847 97.574,65.383 97.903,65.138 98.171 C 64.848 98.489,64.460 98.696,64.024 98.766 C 63.640 98.827,63.195 99.042,62.980 99.271 C 62.774 99.491,62.303 99.752,61.934 99.851 C 61.565 99.950,61.182 100.143,61.083 100.279 C 60.873 100.566,59.644 101.302,58.333 101.925 C 57.829 102.165,57.267 102.496,57.083 102.661 C 56.900 102.827,56.564 103.018,56.337 103.087 C 56.110 103.157,55.558 103.465,55.110 103.773 C 54.662 104.081,54.164 104.333,54.004 104.333 C 53.843 104.333,53.533 104.473,53.314 104.644 C 53.096 104.814,52.612 105.109,52.239 105.298 C 51.866 105.487,51.467 105.756,51.351 105.895 C 51.236 106.035,50.781 106.268,50.340 106.414 C 49.900 106.561,49.406 106.827,49.244 107.007 C 48.824 107.471,47.945 107.436,47.465 106.936 C 47.255 106.717,46.803 106.449,46.461 106.340 C 46.118 106.232,45.790 106.064,45.731 105.969 C 45.672 105.874,45.202 105.611,44.687 105.384 C 44.172 105.158,43.600 104.834,43.417 104.666 C 43.233 104.498,42.765 104.233,42.375 104.079 C 41.985 103.924,41.667 103.734,41.667 103.658 C 41.667 103.581,41.222 103.356,40.677 103.157 C 40.133 102.959,39.651 102.701,39.606 102.583 C 39.561 102.466,39.163 102.239,38.721 102.078 C 38.278 101.917,37.800 101.656,37.658 101.499 C 37.516 101.341,37.031 101.049,36.581 100.849 C 36.131 100.650,35.647 100.387,35.506 100.265 C 35.365 100.142,34.978 99.955,34.645 99.848 C 34.312 99.741,33.907 99.506,33.743 99.326 C 33.580 99.145,33.156 98.910,32.801 98.804 C 32.446 98.698,31.982 98.436,31.768 98.223 C 31.555 98.010,31.051 97.720,30.649 97.580 C 30.246 97.439,29.841 97.225,29.749 97.103 C 29.657 96.982,29.245 96.711,28.833 96.503 C 28.421 96.294,28.023 96.021,27.950 95.895 C 27.877 95.770,27.482 95.583,27.072 95.480 C 26.663 95.377,26.056 95.077,25.724 94.813 C 25.392 94.549,24.996 94.333,24.843 94.333 C 24.691 94.333,24.270 94.119,23.908 93.857 C 23.546 93.595,23.056 93.334,22.819 93.277 C 22.582 93.221,22.116 92.958,21.783 92.693 C 21.450 92.428,20.950 92.117,20.672 92.002 C 20.005 91.726,19.933 90.692,20.552 90.286 C 20.764 90.147,21.027 89.734,21.136 89.368 C 21.247 88.998,21.520 88.583,21.751 88.431 C 22.009 88.262,22.167 88.002,22.167 87.746 C 22.167 87.352,22.679 86.667,22.973 86.667 C 23.159 86.667,23.500 85.903,23.500 85.488 C 23.500 85.289,23.667 85.095,23.921 84.998 C 24.350 84.835,24.397 84.761,24.573 83.958 C 24.648 83.612,24.772 83.500,25.077 83.500 C 25.593 83.500,25.737 83.256,25.690 82.462 C 25.626 81.369,26.569 80.968,26.775 82.000 " stroke="none" fill="#f4a54c" fill-rule="evenodd"></path><path id="path4" d="M48.250 43.954 C 47.738 44.080,47.474 44.354,47.142 45.103 C 46.974 45.480,46.714 45.892,46.563 46.017 C 46.411 46.143,46.145 46.579,45.970 46.987 C 45.795 47.395,45.514 47.826,45.345 47.944 C 45.176 48.062,44.987 48.362,44.925 48.610 C 44.863 48.858,44.636 49.269,44.422 49.524 C 44.208 49.779,43.903 50.327,43.744 50.743 C 43.585 51.160,43.391 51.500,43.313 51.500 C 43.236 51.500,42.973 51.893,42.730 52.374 C 42.486 52.854,42.185 53.323,42.061 53.415 C 41.829 53.589,41.325 54.459,40.611 55.923 C 40.386 56.385,40.077 56.867,39.925 56.993 C 39.772 57.120,39.540 57.480,39.409 57.793 C 39.278 58.107,38.983 58.587,38.752 58.861 C 38.522 59.135,38.333 59.484,38.333 59.638 C 38.333 59.791,38.142 60.139,37.909 60.410 C 37.676 60.681,37.347 61.215,37.178 61.597 C 37.009 61.978,36.788 62.342,36.686 62.405 C 36.584 62.468,36.344 62.884,36.152 63.331 C 35.960 63.778,35.659 64.272,35.485 64.431 C 35.310 64.589,35.167 64.817,35.167 64.937 C 35.167 65.057,34.950 65.401,34.686 65.703 C 34.422 66.004,34.081 66.549,33.928 66.914 C 33.776 67.280,33.514 67.730,33.346 67.914 C 33.178 68.099,32.951 68.530,32.842 68.873 C 32.732 69.215,32.573 69.538,32.489 69.590 C 32.404 69.643,32.258 69.830,32.163 70.006 C 31.961 70.384,32.949 69.880,33.344 69.404 C 33.516 69.196,34.329 69.160,38.510 69.172 L 43.473 69.185 44.482 68.676 C 45.317 68.254,45.689 68.167,46.642 68.167 C 47.602 68.167,47.806 68.118,47.864 67.875 C 48.011 67.262,47.828 67.000,47.256 67.000 C 46.905 67.000,46.665 66.904,46.601 66.736 C 46.462 66.374,46.451 66.403,46.917 65.901 C 47.146 65.653,47.415 65.143,47.514 64.767 C 47.730 63.947,48.832 62.170,49.125 62.168 C 49.373 62.166,50.000 62.763,50.000 63.000 C 50.000 63.107,51.679 63.166,54.708 63.164 C 57.298 63.163,59.334 63.106,59.233 63.039 C 59.133 62.972,59.005 62.470,58.950 61.924 C 58.880 61.224,58.755 60.855,58.526 60.674 C 58.348 60.532,58.154 60.254,58.094 60.056 C 58.035 59.858,57.765 59.417,57.493 59.075 C 57.222 58.734,57.000 58.280,57.000 58.066 C 57.000 57.853,56.775 57.448,56.500 57.167 C 56.141 56.799,56.000 56.494,56.000 56.083 C 56.000 55.697,55.848 55.334,55.530 54.964 C 55.272 54.663,54.965 54.178,54.848 53.887 C 54.732 53.596,54.493 53.228,54.318 53.070 C 54.143 52.911,54.000 52.691,54.000 52.581 C 54.000 52.470,53.803 52.090,53.562 51.735 C 53.322 51.381,53.019 50.791,52.890 50.425 C 52.761 50.059,52.494 49.588,52.297 49.378 C 51.852 48.904,51.295 48.005,50.772 46.917 C 50.552 46.458,50.220 45.947,50.034 45.779 C 49.849 45.612,49.647 45.275,49.587 45.029 C 49.437 44.421,49.036 43.829,48.788 43.853 C 48.675 43.863,48.433 43.909,48.250 43.954 M117.228 63.734 C 116.941 63.862,116.660 64.043,116.602 64.136 C 116.545 64.228,116.180 64.357,115.791 64.422 C 114.921 64.566,114.512 64.773,114.124 65.267 C 113.959 65.476,113.678 65.693,113.499 65.750 C 113.320 65.807,113.018 66.168,112.828 66.552 C 112.639 66.936,112.334 67.512,112.151 67.833 C 111.642 68.728,111.743 72.042,112.301 72.757 C 112.512 73.028,112.852 73.511,113.055 73.829 C 113.258 74.148,113.685 74.575,114.004 74.778 C 114.323 74.982,114.782 75.302,115.025 75.490 C 115.268 75.678,115.945 75.932,116.530 76.054 C 117.114 76.177,117.779 76.399,118.006 76.548 C 118.250 76.708,119.277 76.930,120.502 77.089 C 121.922 77.273,122.689 77.450,122.917 77.645 C 123.100 77.803,123.464 78.039,123.724 78.169 C 126.040 79.328,125.294 82.706,122.583 83.339 C 120.553 83.813,117.217 83.360,116.853 82.560 C 116.753 82.341,116.486 82.077,116.259 81.974 C 115.942 81.829,115.821 81.613,115.734 81.037 C 115.560 79.875,115.245 79.667,113.658 79.667 C 111.513 79.667,110.781 80.225,111.327 81.444 C 111.493 81.816,111.683 82.435,111.748 82.820 C 111.896 83.698,113.362 85.487,114.282 85.914 C 114.631 86.076,115.076 86.353,115.271 86.530 C 116.306 87.472,124.549 87.466,125.562 86.523 C 125.757 86.342,126.234 86.067,126.622 85.913 C 127.045 85.745,127.458 85.423,127.654 85.108 C 127.834 84.820,128.129 84.493,128.310 84.382 C 128.518 84.255,128.716 83.839,128.847 83.255 C 128.961 82.746,129.154 82.246,129.277 82.144 C 129.633 81.849,129.566 79.592,129.167 78.457 C 128.983 77.935,128.833 77.400,128.833 77.268 C 128.833 76.964,127.625 75.696,127.002 75.347 C 126.743 75.202,126.351 74.953,126.131 74.793 C 125.911 74.634,125.325 74.427,124.829 74.333 C 124.334 74.239,123.620 74.013,123.244 73.830 C 122.867 73.648,121.769 73.395,120.802 73.268 C 119.767 73.132,118.864 72.919,118.605 72.749 C 118.362 72.590,117.883 72.363,117.540 72.246 C 116.234 71.798,115.946 68.857,117.147 68.235 C 117.340 68.135,117.656 67.910,117.850 67.735 C 118.158 67.457,118.469 67.417,120.333 67.417 C 122.198 67.417,122.509 67.457,122.817 67.735 C 123.011 67.910,123.328 68.135,123.523 68.235 C 123.718 68.335,123.961 68.651,124.064 68.937 C 124.529 70.234,125.256 70.667,126.974 70.667 C 128.811 70.667,129.412 69.623,128.508 68.000 C 128.329 67.679,128.030 67.107,127.843 66.728 C 127.655 66.349,127.295 65.904,127.043 65.739 C 126.790 65.573,126.453 65.272,126.293 65.069 C 126.120 64.850,125.646 64.615,125.126 64.491 C 124.644 64.375,124.038 64.124,123.778 63.932 C 123.169 63.482,118.135 63.330,117.228 63.734 M225.250 63.615 C 225.067 63.665,224.727 63.840,224.494 64.005 C 224.262 64.170,223.775 64.359,223.411 64.424 C 222.625 64.566,222.312 64.716,221.764 65.212 C 221.538 65.416,220.937 65.958,220.429 66.417 C 219.920 66.875,219.503 67.321,219.502 67.409 C 219.501 67.496,219.285 67.796,219.022 68.075 C 218.753 68.362,218.459 68.937,218.348 69.394 C 218.241 69.840,218.045 70.312,217.914 70.443 C 217.039 71.318,216.945 79.167,217.796 80.318 C 217.975 80.560,218.246 81.186,218.397 81.709 C 218.565 82.284,218.804 82.728,219.003 82.835 C 219.185 82.932,219.333 83.129,219.333 83.273 C 219.333 83.670,221.531 85.763,222.093 85.902 C 222.363 85.969,222.777 86.208,223.014 86.433 C 223.735 87.119,227.138 87.475,230.068 87.171 C 231.883 86.984,232.314 86.859,232.888 86.358 C 233.055 86.212,233.430 86.015,233.721 85.921 C 234.012 85.827,234.324 85.581,234.415 85.375 C 234.505 85.169,234.668 85.000,234.777 85.000 C 234.887 85.000,235.132 84.794,235.324 84.542 C 235.515 84.290,235.848 83.887,236.063 83.646 C 236.279 83.406,236.509 82.922,236.575 82.571 C 236.641 82.220,236.839 81.648,237.017 81.301 C 237.312 80.722,237.318 80.620,237.092 80.079 C 236.378 78.370,233.392 78.812,232.739 80.722 C 232.393 81.736,231.237 82.925,230.378 83.150 C 228.209 83.720,225.057 83.450,224.338 82.634 C 224.111 82.377,223.839 82.167,223.733 82.167 C 223.627 82.167,223.446 81.939,223.331 81.660 C 223.215 81.381,222.975 81.052,222.798 80.927 C 222.594 80.785,222.352 80.220,222.142 79.404 C 221.960 78.690,221.703 77.953,221.572 77.766 C 221.177 77.203,221.241 73.751,221.661 72.968 C 221.841 72.632,222.091 71.911,222.217 71.366 C 222.497 70.152,223.523 68.859,224.731 68.197 C 225.180 67.951,225.705 67.654,225.898 67.537 C 226.529 67.154,229.719 67.334,230.195 67.779 C 230.409 67.979,230.796 68.195,231.055 68.259 C 231.314 68.323,231.607 68.553,231.705 68.768 C 231.804 68.984,232.022 69.204,232.192 69.258 C 232.361 69.312,232.541 69.557,232.593 69.803 C 232.917 71.347,233.553 71.748,235.503 71.638 C 237.170 71.544,237.842 70.603,236.984 69.565 C 236.900 69.464,236.732 69.049,236.610 68.645 C 236.413 67.988,235.546 66.615,234.964 66.037 C 234.081 65.158,233.124 64.536,232.506 64.437 C 232.123 64.376,231.584 64.159,231.308 63.954 C 230.809 63.585,226.292 63.332,225.250 63.615 M149.750 63.749 C 149.658 63.779,149.386 63.847,149.145 63.900 C 148.163 64.115,148.167 64.077,148.167 75.734 C 148.167 87.897,148.022 86.874,149.773 87.076 C 152.581 87.400,152.833 87.057,152.833 82.917 C 152.833 78.708,152.561 79.048,156.000 78.952 C 157.421 78.912,158.921 78.794,159.333 78.690 C 159.746 78.586,160.558 78.396,161.139 78.268 C 161.784 78.126,162.368 77.876,162.639 77.625 C 162.883 77.400,163.217 77.168,163.381 77.111 C 163.545 77.053,163.807 76.779,163.964 76.502 C 164.121 76.226,164.379 75.958,164.536 75.907 C 164.708 75.851,164.937 75.436,165.109 74.866 C 165.267 74.344,165.514 73.778,165.657 73.608 C 166.143 73.030,166.116 70.228,165.614 69.146 C 165.385 68.653,165.149 68.015,165.090 67.728 C 165.031 67.441,164.761 67.009,164.491 66.768 C 164.221 66.528,164.000 66.217,164.000 66.078 C 164.000 65.940,163.794 65.739,163.542 65.632 C 163.290 65.525,162.891 65.263,162.655 65.049 C 162.407 64.825,161.776 64.562,161.155 64.424 C 160.566 64.293,159.783 64.072,159.417 63.933 C 158.811 63.705,150.366 63.543,149.750 63.749 M184.958 63.847 C 184.165 64.309,184.167 64.284,184.167 75.730 C 184.167 87.582,184.102 86.880,185.214 87.087 C 185.509 87.141,188.753 87.163,192.424 87.135 C 200.430 87.073,200.000 87.179,200.000 85.278 C 200.000 83.284,200.441 83.425,194.029 83.369 C 189.959 83.333,188.493 83.268,188.389 83.119 C 188.311 83.008,188.285 81.604,188.332 80.000 L 188.417 77.083 193.068 77.053 L 197.719 77.024 198.137 76.605 C 198.774 75.969,198.753 74.284,198.102 73.724 C 197.650 73.335,197.633 73.333,193.009 73.333 C 189.440 73.333,188.355 73.285,188.309 73.125 C 188.277 73.010,188.287 71.717,188.333 70.250 L 188.417 67.583 193.600 67.500 C 197.547 67.437,198.846 67.364,199.047 67.197 C 199.704 66.651,199.576 64.884,198.826 64.134 L 198.359 63.667 191.804 63.672 C 187.663 63.675,185.143 63.739,184.958 63.847 M254.931 64.179 C 254.560 64.621,254.500 64.849,254.500 65.826 C 254.500 67.424,254.450 67.400,258.067 67.500 L 261.083 67.583 261.167 77.036 C 261.262 87.871,261.111 86.980,262.875 87.122 C 265.618 87.342,265.500 87.783,265.500 77.303 C 265.500 68.800,265.507 68.611,265.847 68.061 L 266.194 67.500 268.991 67.500 C 272.376 67.500,272.667 67.381,272.667 65.999 C 272.667 63.658,272.735 63.675,263.140 63.670 L 255.363 63.667 254.931 64.179 M291.327 64.007 C 290.686 64.648,290.667 64.986,290.667 75.742 C 290.667 88.244,290.453 87.098,292.772 87.057 C 294.900 87.020,294.833 87.156,294.833 82.825 C 294.833 78.870,294.717 79.145,296.430 79.036 C 298.570 78.898,299.487 79.096,299.762 79.753 C 299.890 80.060,300.131 80.410,300.296 80.531 C 300.462 80.651,300.691 81.069,300.806 81.459 C 300.922 81.855,301.187 82.281,301.407 82.425 C 301.639 82.578,301.844 82.922,301.909 83.270 C 301.970 83.593,302.236 84.083,302.500 84.359 C 302.764 84.635,303.024 85.061,303.079 85.306 C 303.133 85.550,303.482 86.050,303.853 86.417 L 304.527 87.083 305.959 87.067 C 307.907 87.044,308.551 86.369,307.564 85.382 C 307.324 85.142,307.019 84.626,306.886 84.235 C 306.752 83.843,306.471 83.410,306.261 83.273 C 306.051 83.135,305.836 82.803,305.782 82.535 C 305.728 82.266,305.491 81.817,305.254 81.536 C 305.018 81.255,304.741 80.776,304.640 80.471 C 304.538 80.166,304.286 79.729,304.079 79.500 C 303.418 78.766,303.420 78.433,304.087 78.115 C 304.412 77.960,304.720 77.721,304.773 77.584 C 304.826 77.446,304.976 77.333,305.108 77.333 C 305.452 77.333,306.665 76.044,306.940 75.386 C 307.069 75.078,307.316 74.684,307.489 74.511 C 308.333 73.667,308.136 68.613,307.224 67.700 C 307.101 67.577,307.000 67.379,307.000 67.260 C 307.000 67.025,305.543 65.500,305.318 65.500 C 305.242 65.500,305.000 65.305,304.779 65.067 C 304.512 64.779,304.051 64.563,303.397 64.420 C 302.858 64.302,301.970 64.084,301.423 63.936 C 299.760 63.485,291.792 63.541,291.327 64.007 M335.235 63.838 C 334.396 64.095,333.874 64.700,333.744 65.565 C 333.680 65.990,333.498 66.505,333.338 66.710 C 333.007 67.136,332.739 67.931,332.580 68.958 C 332.520 69.348,332.376 69.723,332.260 69.792 C 331.945 69.978,331.720 70.493,331.585 71.333 C 331.519 71.746,331.256 72.402,331.002 72.791 C 330.714 73.230,330.495 73.846,330.424 74.414 C 330.361 74.918,330.214 75.387,330.096 75.457 C 329.778 75.645,329.553 76.159,329.421 77.000 C 329.356 77.412,329.131 78.017,328.920 78.344 C 328.709 78.670,328.447 79.383,328.337 79.927 C 328.227 80.471,327.963 81.179,327.750 81.500 C 327.537 81.821,327.272 82.533,327.162 83.083 C 327.052 83.633,326.860 84.143,326.734 84.215 C 325.831 84.736,325.977 86.862,326.932 87.102 C 329.163 87.662,330.740 86.672,331.080 84.500 C 331.145 84.087,331.378 83.484,331.598 83.158 C 331.819 82.833,332.080 82.121,332.180 81.575 C 332.280 81.030,332.505 80.429,332.681 80.239 C 332.856 80.050,333.080 79.450,333.179 78.906 C 333.277 78.362,333.533 77.654,333.747 77.333 C 333.962 77.012,334.228 76.300,334.338 75.750 C 334.449 75.200,334.684 74.546,334.861 74.296 C 335.038 74.047,335.295 73.305,335.432 72.647 C 335.569 71.989,335.830 71.261,336.012 71.030 C 336.194 70.799,336.425 70.285,336.525 69.888 C 336.753 68.979,336.936 68.975,337.177 69.873 C 337.282 70.262,337.514 70.786,337.693 71.036 C 337.871 71.287,338.092 71.963,338.184 72.538 C 338.277 73.122,338.524 73.841,338.744 74.167 C 338.960 74.487,339.223 75.177,339.328 75.698 C 339.433 76.220,339.660 76.826,339.833 77.045 C 340.005 77.264,340.265 77.957,340.411 78.584 C 340.556 79.211,340.813 79.955,340.982 80.237 C 341.151 80.519,341.379 81.124,341.490 81.580 C 341.600 82.037,341.868 82.750,342.084 83.164 C 342.300 83.578,342.561 84.329,342.663 84.833 C 343.042 86.696,344.691 87.615,346.734 87.102 C 347.693 86.862,347.826 85.446,346.997 84.303 C 346.819 84.057,346.595 83.494,346.499 83.053 C 346.288 82.077,346.014 81.334,345.741 81.000 C 345.629 80.862,345.451 80.337,345.345 79.833 C 345.240 79.329,344.975 78.654,344.758 78.333 C 344.540 78.012,344.274 77.312,344.166 76.777 C 344.058 76.241,343.837 75.670,343.673 75.507 C 343.510 75.343,343.250 74.643,343.096 73.949 C 342.942 73.256,342.684 72.515,342.522 72.303 C 342.361 72.090,342.138 71.506,342.026 71.005 C 341.914 70.503,341.673 69.934,341.491 69.740 C 341.301 69.538,341.082 68.949,340.979 68.360 C 340.879 67.795,340.637 67.131,340.440 66.884 C 340.244 66.637,340.007 66.058,339.914 65.597 C 339.605 64.070,337.304 63.205,335.235 63.838 M367.004 63.829 C 365.762 64.139,365.833 63.428,365.833 75.576 C 365.833 86.415,365.834 86.449,366.184 86.766 C 366.513 87.064,366.914 87.087,372.726 87.138 C 381.407 87.214,381.651 87.159,381.444 85.180 C 381.245 83.275,381.434 83.335,375.617 83.327 C 372.168 83.323,370.816 83.266,370.540 83.112 L 370.163 82.903 370.123 73.871 L 370.083 64.840 369.562 64.318 C 368.986 63.742,368.060 63.565,367.004 63.829 M122.432 64.423 C 122.882 64.564,123.639 64.747,124.115 64.829 C 125.304 65.036,126.758 66.203,127.333 67.414 C 127.563 67.896,127.838 68.395,127.945 68.521 C 128.749 69.473,128.321 70.167,126.928 70.167 C 125.752 70.167,125.557 70.050,124.952 68.986 C 123.921 67.170,123.012 66.746,120.167 66.756 C 117.618 66.764,116.316 67.471,115.573 69.250 C 115.179 70.192,115.998 72.318,116.860 72.592 C 117.030 72.646,117.390 72.876,117.661 73.104 C 118.056 73.436,118.436 73.548,119.563 73.665 C 120.449 73.756,121.300 73.962,121.860 74.222 C 122.352 74.450,123.250 74.684,123.868 74.746 C 124.750 74.835,125.115 74.961,125.599 75.346 C 125.936 75.614,126.318 75.833,126.446 75.833 C 126.575 75.833,127.047 76.206,127.496 76.662 C 128.473 77.655,128.553 78.014,128.473 81.011 L 128.417 83.083 127.604 84.083 C 127.034 84.785,126.488 85.241,125.771 85.612 C 125.209 85.902,124.563 86.239,124.333 86.360 C 123.532 86.785,116.810 86.669,116.203 86.220 C 115.933 86.020,115.422 85.736,115.069 85.588 C 114.359 85.291,112.361 83.276,112.255 82.750 C 111.807 80.523,112.107 80.050,113.841 80.251 C 114.910 80.375,115.014 80.469,115.234 81.510 C 115.692 83.681,120.269 85.264,122.725 84.102 C 123.232 83.863,123.717 83.667,123.804 83.667 C 123.891 83.667,124.268 83.351,124.643 82.965 C 126.019 81.547,125.944 78.811,124.500 77.768 C 123.418 76.988,122.985 76.815,121.757 76.678 C 121.083 76.602,120.281 76.413,119.974 76.258 C 119.668 76.103,118.742 75.866,117.917 75.731 C 116.892 75.564,116.229 75.356,115.824 75.076 C 115.499 74.851,115.155 74.667,115.062 74.667 C 114.668 74.667,113.357 73.169,112.846 72.136 C 112.180 70.791,112.143 69.090,112.762 68.303 C 112.948 68.066,113.205 67.556,113.333 67.169 C 113.465 66.766,113.747 66.351,113.991 66.198 C 114.225 66.051,114.659 65.725,114.955 65.474 C 115.251 65.222,115.776 64.973,116.121 64.921 C 116.655 64.840,117.662 64.583,118.667 64.271 C 119.259 64.087,121.669 64.184,122.432 64.423 M230.167 64.500 C 230.762 64.682,231.475 64.833,231.750 64.835 C 232.025 64.837,232.358 64.907,232.491 64.991 C 235.317 66.779,237.232 70.252,235.810 71.012 C 234.987 71.453,233.489 70.726,233.158 69.725 C 232.324 67.198,226.984 65.666,224.691 67.296 C 224.468 67.454,224.073 67.733,223.811 67.917 C 223.161 68.373,221.833 69.967,221.833 70.292 C 221.833 70.438,221.602 71.031,221.320 71.611 L 220.807 72.664 220.864 75.707 L 220.920 78.750 221.552 80.000 C 222.884 82.634,223.970 83.561,226.667 84.365 C 228.826 85.009,232.833 83.064,233.249 81.171 C 233.462 80.204,235.430 79.611,236.072 80.321 C 236.450 80.739,236.184 82.186,235.576 83.010 C 235.351 83.315,235.167 83.635,235.167 83.721 C 235.167 84.071,233.556 85.447,233.022 85.554 C 232.717 85.615,232.251 85.847,231.987 86.069 C 230.932 86.956,225.111 86.936,223.759 86.040 C 223.310 85.743,222.823 85.500,222.676 85.500 C 222.399 85.500,220.251 83.469,219.469 82.469 C 219.211 82.138,218.912 81.421,218.762 80.775 C 218.619 80.158,218.402 79.450,218.279 79.202 C 217.581 77.782,217.614 72.921,218.332 71.500 C 218.494 71.179,218.680 70.600,218.744 70.212 C 218.809 69.825,219.041 69.262,219.260 68.962 C 219.480 68.662,219.753 68.229,219.867 68.000 C 220.129 67.474,221.241 66.353,221.935 65.917 C 222.226 65.733,222.650 65.450,222.878 65.286 C 223.105 65.123,223.694 64.917,224.187 64.828 C 224.680 64.740,225.458 64.560,225.917 64.428 C 227.129 64.080,228.890 64.110,230.167 64.500 M159.952 64.808 C 160.807 64.894,161.304 65.039,161.670 65.310 C 161.954 65.519,162.463 65.786,162.801 65.902 C 163.200 66.039,163.497 66.283,163.647 66.598 C 163.773 66.865,164.006 67.233,164.163 67.417 C 165.383 68.834,165.331 73.951,164.084 75.333 C 163.877 75.563,163.621 75.919,163.514 76.125 C 163.408 76.332,163.080 76.611,162.786 76.746 C 162.491 76.881,162.049 77.154,161.804 77.352 C 161.249 77.802,159.687 77.972,155.917 77.995 C 151.824 78.021,151.836 78.007,151.834 82.758 C 151.833 86.562,151.855 86.500,150.539 86.500 C 148.841 86.500,149.000 87.611,149.000 75.756 L 149.000 65.358 149.439 65.012 C 149.909 64.643,156.945 64.506,159.952 64.808 M198.529 64.942 C 198.879 65.259,198.945 66.322,198.633 66.633 C 198.487 66.780,197.095 66.833,193.409 66.833 C 187.225 66.833,187.860 66.430,187.822 70.385 C 187.783 74.398,187.250 74.020,192.907 73.989 L 197.417 73.965 197.619 74.559 C 197.778 75.028,197.776 75.281,197.613 75.754 L 197.405 76.354 192.899 76.339 C 188.739 76.325,188.373 76.347,188.119 76.628 C 187.627 77.171,187.682 83.234,188.183 83.768 L 188.558 84.167 193.517 84.167 L 198.476 84.167 198.821 84.606 C 199.269 85.175,199.281 86.094,198.844 86.327 C 198.357 86.588,185.129 86.562,184.867 86.300 C 184.512 85.946,184.585 65.366,184.942 64.971 C 185.347 64.525,198.037 64.498,198.529 64.942 M271.394 65.012 C 271.710 65.261,271.833 65.512,271.833 65.909 C 271.833 66.693,271.403 66.807,268.226 66.866 C 264.395 66.938,264.833 65.648,264.833 76.839 C 264.833 87.476,264.998 86.541,263.140 86.466 L 261.917 86.417 261.833 76.976 C 261.732 65.517,262.196 66.833,258.258 66.833 C 255.125 66.833,255.000 66.797,255.000 65.881 C 255.000 64.588,254.470 64.667,263.184 64.667 C 270.793 64.667,270.964 64.674,271.394 65.012 M303.294 64.971 C 306.442 65.978,308.344 70.630,306.901 73.797 C 306.680 74.281,306.499 74.806,306.499 74.963 C 306.497 75.250,305.280 76.555,304.692 76.901 C 302.704 78.069,302.566 78.276,303.114 79.269 C 303.361 79.717,303.655 80.140,303.768 80.209 C 303.881 80.279,304.100 80.715,304.254 81.180 C 304.408 81.644,304.645 82.066,304.779 82.118 C 304.914 82.169,305.209 82.595,305.434 83.064 C 305.987 84.214,306.688 85.396,307.060 85.808 C 307.535 86.332,307.257 86.500,305.916 86.500 C 304.726 86.500,304.676 86.484,304.390 86.000 C 304.228 85.725,304.035 85.500,303.962 85.500 C 303.889 85.500,303.651 85.097,303.433 84.605 C 303.215 84.112,302.948 83.654,302.838 83.586 C 302.729 83.519,302.492 83.153,302.313 82.773 C 302.134 82.394,301.709 81.627,301.369 81.069 C 301.028 80.511,300.600 79.807,300.417 79.504 C 299.537 78.053,299.605 78.083,297.186 78.083 C 294.080 78.083,294.264 77.806,294.199 82.587 C 294.141 86.886,294.290 86.564,292.410 86.468 L 291.417 86.417 291.374 75.866 C 291.343 68.390,291.385 65.216,291.516 64.971 C 291.723 64.584,302.084 64.584,303.294 64.971 M339.082 64.999 C 339.209 65.104,339.363 65.600,339.426 66.101 C 339.494 66.647,339.708 67.261,339.960 67.631 C 340.191 67.972,340.479 68.721,340.599 69.298 C 340.720 69.874,340.967 70.534,341.149 70.766 C 341.332 70.998,341.565 71.614,341.669 72.135 C 341.773 72.657,342.002 73.287,342.179 73.536 C 342.356 73.784,342.610 74.455,342.743 75.027 C 342.877 75.598,343.141 76.275,343.330 76.531 C 343.520 76.788,343.749 77.392,343.839 77.874 C 343.930 78.356,344.141 78.938,344.309 79.167 C 344.640 79.619,344.914 80.403,345.074 81.358 C 345.130 81.693,345.311 82.143,345.478 82.358 C 345.644 82.574,345.910 83.275,346.068 83.917 C 346.227 84.558,346.508 85.245,346.693 85.443 C 347.310 86.103,347.053 86.410,345.837 86.467 C 344.414 86.534,344.060 86.429,343.928 85.901 C 343.868 85.662,343.673 85.268,343.494 85.025 C 343.316 84.782,343.080 84.133,342.970 83.583 C 342.861 83.033,342.560 82.182,342.302 81.691 C 342.044 81.201,341.833 80.631,341.833 80.425 C 341.833 80.218,341.643 79.691,341.410 79.253 C 341.176 78.814,340.887 78.034,340.767 77.519 C 340.646 77.005,340.350 76.292,340.107 75.935 C 339.857 75.567,339.667 75.056,339.667 74.752 C 339.667 74.457,339.471 73.849,339.232 73.400 C 338.994 72.951,338.693 72.080,338.565 71.464 C 338.436 70.849,338.144 70.070,337.916 69.733 C 337.687 69.396,337.498 69.037,337.496 68.935 C 337.472 67.713,336.475 67.926,336.095 69.235 C 335.955 69.715,335.697 70.238,335.521 70.397 C 335.340 70.561,335.153 71.026,335.089 71.468 C 335.028 71.898,334.758 72.678,334.489 73.202 C 334.220 73.725,334.000 74.371,334.000 74.636 C 334.000 74.902,333.778 75.536,333.506 76.045 C 333.234 76.555,332.924 77.334,332.817 77.777 C 332.710 78.221,332.488 78.808,332.324 79.083 C 332.160 79.358,331.908 80.092,331.764 80.713 C 331.620 81.335,331.353 82.047,331.170 82.297 C 330.987 82.546,330.760 83.160,330.666 83.661 C 330.572 84.161,330.249 84.986,329.948 85.494 L 329.401 86.417 328.054 86.465 C 326.459 86.522,326.290 86.356,326.950 85.385 C 327.187 85.036,327.483 84.316,327.607 83.786 C 327.731 83.255,327.985 82.615,328.171 82.363 C 328.357 82.112,328.555 81.608,328.612 81.244 C 328.668 80.881,328.925 80.171,329.183 79.667 C 329.441 79.162,329.734 78.377,329.835 77.922 C 329.935 77.467,330.162 76.860,330.339 76.574 C 330.516 76.288,330.766 75.549,330.896 74.932 C 331.025 74.315,331.281 73.646,331.464 73.446 C 331.647 73.247,331.878 72.696,331.977 72.223 C 332.076 71.750,332.335 71.100,332.552 70.780 C 332.770 70.459,333.033 69.773,333.137 69.254 C 333.241 68.735,333.469 68.129,333.644 67.908 C 333.819 67.686,334.053 67.018,334.165 66.424 C 334.381 65.281,334.529 65.069,335.281 64.825 C 335.902 64.623,338.789 64.756,339.082 64.999 M368.905 64.929 C 369.136 65.160,369.167 66.215,369.167 74.020 C 369.167 83.909,369.134 83.621,370.300 83.970 C 370.732 84.100,372.467 84.167,375.382 84.167 L 379.809 84.167 380.155 84.606 C 380.535 85.090,380.612 85.988,380.300 86.300 C 380.088 86.512,367.468 86.605,366.930 86.399 C 366.694 86.308,366.667 85.213,366.667 75.737 L 366.667 65.177 367.125 64.929 C 367.728 64.601,368.578 64.601,368.905 64.929 M152.671 67.115 C 151.900 67.517,151.869 67.689,151.850 71.696 L 151.833 75.142 152.288 75.500 C 152.723 75.843,152.877 75.855,155.913 75.800 L 159.083 75.742 160.047 75.137 C 161.422 74.274,161.436 74.258,161.907 73.026 C 162.427 71.665,162.421 71.264,161.858 69.667 L 161.417 68.417 160.167 67.670 L 158.917 66.922 156.083 66.868 C 153.607 66.821,153.177 66.852,152.671 67.115 M294.622 67.166 L 294.167 67.524 294.167 71.425 L 294.167 75.326 294.574 75.593 C 294.920 75.819,295.451 75.852,298.033 75.805 L 301.083 75.750 302.127 75.100 C 302.701 74.743,303.325 74.199,303.515 73.892 C 303.705 73.585,303.927 73.333,304.007 73.333 C 304.280 73.333,304.538 71.922,304.455 70.879 C 304.348 69.530,303.528 68.421,301.896 67.417 L 301.083 66.917 298.080 66.862 C 295.217 66.810,295.056 66.825,294.622 67.166 M158.605 67.823 C 158.972 68.000,159.472 68.195,159.716 68.256 C 161.538 68.714,162.063 72.597,160.488 73.979 C 159.361 74.969,153.454 75.888,152.985 75.147 C 152.770 74.808,152.797 68.653,153.016 68.025 L 153.199 67.500 155.568 67.500 C 157.570 67.500,158.041 67.550,158.605 67.823 M300.643 67.721 C 300.743 67.842,301.259 68.081,301.788 68.251 C 303.558 68.819,304.254 71.012,303.292 72.986 L 302.750 74.097 301.173 74.654 C 299.327 75.306,295.290 75.629,294.986 75.149 C 294.822 74.890,294.775 68.179,294.934 67.764 C 295.072 67.405,300.348 67.366,300.643 67.721 " stroke="none" fill="#969da0" fill-rule="evenodd"></path></g></svg>