<svg id="svg" version="1.1" xmlns="http://www.w3.org/2000/svg" xmlns:xlink="http://www.w3.org/1999/xlink" width="400" height="165.0429799426934" viewBox="0, 0, 400,165.0429799426934"><g id="svgg"><path id="path0" d="M70.952 68.632 C 70.335 69.110,70.113 69.412,69.971 69.969 C 69.856 70.422,69.632 70.791,69.366 70.965 C 68.446 71.568,67.201 72.926,67.091 73.448 C 67.002 73.866,66.882 73.991,66.531 74.032 C 66.145 74.076,66.072 74.176,66.000 74.752 C 65.954 75.120,65.720 75.682,65.481 76.002 C 65.241 76.322,64.998 76.833,64.940 77.139 C 64.883 77.444,64.686 77.819,64.502 77.972 C 64.301 78.138,64.100 78.608,64.001 79.141 C 63.910 79.635,63.660 80.241,63.442 80.501 C 63.225 80.758,63.001 81.262,62.944 81.619 C 62.884 81.989,62.665 82.433,62.434 82.650 C 62.056 83.005,62.043 83.073,62.239 83.641 L 62.450 84.250 65.972 84.295 L 69.495 84.340 69.773 84.878 C 69.926 85.174,70.187 85.604,70.354 85.833 C 70.558 86.115,70.809 87.223,71.129 89.250 L 71.603 92.250 73.326 92.298 C 74.874 92.341,75.086 92.311,75.415 92.002 C 75.651 91.780,76.272 91.566,77.169 91.396 C 77.932 91.252,78.750 90.999,78.987 90.833 C 79.223 90.667,79.717 90.480,80.083 90.418 C 80.450 90.356,80.992 90.157,81.288 89.975 C 82.243 89.388,85.248 89.340,85.991 89.900 C 86.372 90.188,86.775 90.333,87.190 90.333 C 87.534 90.333,88.439 90.556,89.200 90.828 C 89.961 91.100,91.064 91.398,91.650 91.490 C 92.312 91.593,92.854 91.785,93.078 91.995 C 93.311 92.214,93.641 92.325,94.011 92.311 C 94.471 92.292,94.502 92.273,94.167 92.211 C 93.650 92.114,93.506 91.899,93.503 91.216 C 93.501 90.871,93.353 90.534,93.083 90.265 C 92.829 90.011,92.667 89.659,92.667 89.361 C 92.667 88.770,92.227 87.667,91.992 87.667 C 91.898 87.667,91.681 87.340,91.510 86.940 C 91.339 86.541,91.009 86.024,90.777 85.792 C 90.545 85.560,90.304 85.098,90.242 84.765 C 90.179 84.431,89.995 84.065,89.833 83.952 C 89.670 83.838,89.417 83.458,89.271 83.107 C 89.124 82.757,88.822 82.254,88.600 81.989 C 88.377 81.724,88.147 81.291,88.089 81.025 C 88.030 80.759,87.801 80.371,87.580 80.163 C 87.358 79.955,87.090 79.514,86.984 79.184 C 86.879 78.854,86.636 78.412,86.445 78.203 C 86.108 77.833,85.645 77.007,84.763 75.203 C 84.526 74.719,84.227 74.282,84.098 74.233 C 83.970 74.183,83.705 73.773,83.511 73.321 C 83.316 72.870,83.086 72.500,82.998 72.500 C 82.911 72.500,82.656 72.139,82.432 71.698 C 82.209 71.257,81.897 70.789,81.740 70.659 C 81.583 70.528,81.317 70.102,81.150 69.711 C 80.975 69.302,80.733 69.000,80.581 69.000 C 80.436 69.000,80.126 68.794,79.893 68.542 L 79.468 68.083 75.609 68.049 L 71.750 68.015 70.952 68.632 M130.917 70.106 C 129.371 70.348,126.759 72.163,126.317 73.303 C 125.893 74.393,126.139 77.419,126.708 78.127 C 127.471 79.077,128.765 80.011,129.657 80.256 C 130.075 80.370,130.682 80.579,131.007 80.720 C 131.331 80.860,132.430 81.083,133.449 81.214 C 138.351 81.848,139.140 86.663,134.451 87.328 C 131.141 87.798,129.315 86.940,128.262 84.419 C 127.826 83.377,125.500 83.615,125.500 84.701 C 125.500 86.445,127.209 88.808,128.808 89.274 C 129.298 89.416,130.038 89.683,130.451 89.866 C 131.524 90.340,135.249 90.238,136.218 89.707 C 136.567 89.516,137.151 89.309,137.516 89.247 C 137.957 89.173,138.270 88.998,138.447 88.727 C 138.594 88.503,138.897 88.223,139.120 88.106 C 140.272 87.503,141.131 83.834,140.385 82.707 C 140.218 82.456,139.932 81.955,139.749 81.594 C 139.219 80.549,137.407 79.410,135.875 79.159 C 135.256 79.057,134.188 78.796,133.500 78.579 C 132.813 78.361,131.950 78.132,131.583 78.069 C 129.764 77.759,128.943 76.403,129.368 74.411 C 129.855 72.129,136.145 72.139,136.573 74.423 C 136.844 75.866,139.833 76.020,139.833 74.591 C 139.833 73.215,138.657 71.547,137.333 71.047 C 136.921 70.891,136.339 70.622,136.040 70.448 C 135.491 70.128,132.182 69.908,130.917 70.106 M223.986 70.145 C 223.658 70.215,223.133 70.427,222.819 70.616 C 222.506 70.805,221.965 71.051,221.617 71.162 C 220.802 71.423,219.532 72.510,219.000 73.402 C 218.771 73.786,218.423 74.302,218.228 74.549 C 218.032 74.795,217.819 75.349,217.754 75.780 C 217.690 76.211,217.493 76.927,217.318 77.371 C 216.852 78.555,216.865 81.649,217.341 82.873 C 217.529 83.355,217.751 84.146,217.834 84.631 C 218.079 86.063,220.717 88.997,222.069 89.342 C 222.444 89.438,223.101 89.662,223.531 89.841 C 224.670 90.316,227.651 90.309,228.590 89.829 C 228.953 89.644,229.550 89.411,229.916 89.312 C 230.282 89.213,230.853 88.887,231.185 88.587 C 231.516 88.287,231.901 87.976,232.039 87.896 C 232.177 87.816,232.460 87.412,232.668 87.000 C 232.876 86.587,233.186 86.071,233.356 85.853 C 234.272 84.681,233.636 83.570,232.138 83.727 C 230.935 83.852,230.726 83.994,230.498 84.842 C 229.747 87.628,224.695 88.307,222.136 85.964 C 220.422 84.396,219.415 79.946,220.276 77.750 C 220.420 77.383,220.710 76.603,220.921 76.017 C 221.859 73.404,224.416 72.240,227.502 73.020 C 229.068 73.416,230.212 74.310,230.514 75.375 C 230.749 76.202,230.893 76.345,231.670 76.519 C 233.590 76.951,234.272 75.852,233.167 74.110 C 232.892 73.677,232.667 73.243,232.667 73.147 C 232.667 72.932,230.815 71.175,230.583 71.170 C 230.492 71.168,229.929 70.931,229.333 70.643 C 228.183 70.087,225.458 69.834,223.986 70.145 M158.405 70.327 C 157.489 70.698,157.500 70.581,157.503 80.119 C 157.504 84.958,157.560 88.996,157.628 89.093 C 158.148 89.842,159.835 90.121,160.161 89.511 C 160.256 89.334,160.338 88.115,160.343 86.803 C 160.353 84.448,160.497 82.948,160.737 82.707 C 160.805 82.639,162.485 82.543,164.472 82.493 C 168.329 82.396,168.010 82.461,169.743 81.418 C 171.919 80.107,172.775 75.228,171.186 73.192 C 169.916 71.565,168.744 70.863,166.417 70.333 C 165.582 70.143,158.872 70.138,158.405 70.327 M189.052 70.411 C 188.163 70.797,188.144 71.031,188.199 80.536 C 188.246 88.547,188.271 89.176,188.547 89.452 C 189.021 89.927,200.591 89.999,201.169 89.532 C 201.586 89.194,201.688 87.788,201.323 87.422 C 201.215 87.314,199.425 87.232,196.538 87.201 C 190.830 87.139,191.333 87.425,191.333 84.243 C 191.333 80.917,190.936 81.185,195.950 81.129 C 200.292 81.080,200.238 81.092,200.384 80.130 C 200.584 78.802,200.443 78.758,195.834 78.695 L 191.805 78.640 191.569 78.075 C 191.415 77.707,191.333 76.886,191.333 75.709 C 191.333 72.981,190.999 73.167,195.901 73.167 C 200.079 73.167,200.864 73.066,201.170 72.493 C 201.573 71.740,201.277 70.819,200.503 70.418 C 199.817 70.064,189.866 70.057,189.052 70.411 M250.042 70.339 C 249.473 70.567,249.077 71.522,249.271 72.197 C 249.503 73.009,249.969 73.161,252.217 73.164 C 253.649 73.166,254.317 73.236,254.675 73.421 L 255.167 73.675 255.167 81.217 C 255.167 90.012,255.131 89.825,256.794 89.831 C 258.198 89.836,258.181 89.944,258.150 81.197 C 258.130 75.592,258.174 73.593,258.320 73.447 C 258.444 73.322,259.410 73.220,260.966 73.167 C 262.441 73.117,263.558 73.002,263.772 72.880 C 264.587 72.412,264.336 70.782,263.381 70.348 C 262.890 70.124,250.597 70.115,250.042 70.339 M280.979 70.442 C 280.792 70.667,280.742 72.410,280.704 79.882 C 280.652 90.218,280.609 89.833,281.824 89.833 C 283.357 89.833,283.500 89.493,283.500 85.846 L 283.500 83.009 283.992 82.754 C 284.325 82.582,284.964 82.500,285.972 82.500 L 287.461 82.500 288.130 83.169 C 288.497 83.537,288.849 84.040,288.911 84.288 C 288.974 84.536,289.244 85.038,289.512 85.402 C 289.781 85.767,290.000 86.158,290.000 86.270 C 290.000 86.382,290.206 86.718,290.458 87.016 C 290.710 87.314,291.030 87.861,291.169 88.231 C 291.817 89.958,294.500 90.481,294.500 88.880 C 294.500 88.598,293.883 87.504,293.017 86.250 C 292.827 85.975,292.510 85.412,292.312 85.000 C 292.115 84.587,291.738 84.003,291.476 83.702 C 290.836 82.967,291.545 81.659,292.797 81.261 C 293.419 81.064,294.374 79.668,294.613 78.605 C 295.030 76.752,295.045 76.384,294.751 75.056 C 294.154 72.359,293.093 71.403,289.589 70.403 C 288.290 70.032,281.293 70.064,280.979 70.442 M318.373 70.893 C 317.894 71.413,317.671 71.826,317.586 72.351 C 317.521 72.754,317.288 73.396,317.069 73.777 C 316.849 74.159,316.563 74.926,316.434 75.482 C 316.304 76.039,316.047 76.739,315.863 77.039 C 315.679 77.338,315.403 78.068,315.250 78.660 C 315.098 79.252,314.830 79.937,314.655 80.183 C 314.481 80.428,314.254 81.019,314.152 81.496 C 314.049 81.974,313.748 82.778,313.483 83.283 C 313.217 83.787,313.000 84.373,313.000 84.583 C 313.000 84.794,312.778 85.388,312.507 85.904 C 311.194 88.399,311.300 89.838,312.796 89.828 C 314.079 89.820,315.167 88.483,315.167 86.913 C 315.167 86.712,315.357 86.266,315.590 85.923 C 315.822 85.581,316.128 84.801,316.269 84.192 C 316.410 83.582,316.664 82.858,316.834 82.583 C 317.003 82.308,317.231 81.708,317.341 81.250 C 317.451 80.792,317.724 80.096,317.946 79.705 C 318.169 79.314,318.430 78.543,318.527 77.993 C 318.624 77.442,318.880 76.733,319.095 76.416 C 319.309 76.099,319.564 75.547,319.661 75.190 C 320.039 73.783,320.693 73.919,321.006 75.471 C 321.111 75.991,321.369 76.717,321.578 77.083 C 321.788 77.450,322.044 78.150,322.148 78.639 C 322.251 79.128,322.515 79.841,322.735 80.223 C 322.954 80.604,323.218 81.324,323.321 81.821 C 323.425 82.318,323.664 82.976,323.853 83.282 C 324.043 83.589,324.306 84.306,324.439 84.876 C 324.572 85.446,324.855 86.213,325.068 86.581 C 325.281 86.949,325.507 87.550,325.570 87.917 C 325.763 89.040,325.835 89.161,326.523 89.512 C 328.526 90.534,329.718 88.778,328.337 86.839 C 328.153 86.580,327.880 85.891,327.732 85.309 C 327.583 84.727,327.321 84.053,327.150 83.811 C 326.979 83.570,326.728 82.899,326.593 82.320 C 326.458 81.741,326.190 81.054,325.997 80.794 C 325.804 80.533,325.545 79.836,325.422 79.246 C 325.298 78.655,325.046 77.927,324.861 77.628 C 324.676 77.328,324.435 76.708,324.325 76.250 C 324.215 75.792,323.957 75.117,323.752 74.750 C 323.546 74.383,323.284 73.671,323.169 73.167 C 323.050 72.645,322.664 71.804,322.272 71.214 L 321.583 70.177 320.313 70.172 L 319.042 70.167 318.373 70.893 M346.398 70.290 C 345.688 70.776,345.667 71.064,345.667 80.249 L 345.667 89.015 346.082 89.430 L 346.497 89.846 352.241 89.798 C 358.633 89.745,358.337 89.804,358.458 88.545 C 358.583 87.242,358.642 87.258,353.518 87.198 C 349.748 87.154,349.043 87.106,348.793 86.880 C 348.521 86.634,348.500 86.048,348.498 78.849 C 348.495 70.031,348.528 70.276,347.329 70.207 C 346.919 70.183,346.500 70.220,346.398 70.290 M166.819 73.329 C 169.365 74.059,169.573 78.286,167.125 79.545 L 165.917 80.167 163.395 80.167 C 161.335 80.167,160.835 80.120,160.662 79.911 C 160.298 79.472,160.215 74.122,160.564 73.589 L 160.841 73.167 163.547 73.167 C 165.035 73.167,166.507 73.240,166.819 73.329 M290.072 73.390 C 290.841 73.622,291.993 75.463,291.997 76.469 C 292.002 77.504,291.245 78.764,290.201 79.457 L 289.258 80.083 286.900 80.140 C 284.968 80.187,284.447 80.148,284.017 79.926 L 283.493 79.654 283.538 76.624 L 283.583 73.593 284.000 73.382 C 284.543 73.108,289.157 73.114,290.072 73.390 " stroke="none" fill="#e4cfb0" fill-rule="evenodd"></path><path id="path1" d="M0.000 82.500 L 0.000 165.000 200.000 165.000 L 400.000 165.000 400.000 82.500 L 400.000 0.000 200.000 0.000 L 0.000 0.000 0.000 82.500 M72.219 53.932 C 72.386 54.382,72.699 54.938,72.915 55.167 C 73.131 55.396,73.434 55.902,73.589 56.292 C 73.743 56.681,73.935 57.000,74.015 57.000 C 74.095 57.000,74.344 57.361,74.568 57.802 C 74.791 58.243,75.092 58.702,75.236 58.822 C 75.380 58.941,75.578 59.338,75.677 59.705 C 75.775 60.071,76.036 60.537,76.255 60.740 C 76.475 60.944,76.801 61.452,76.980 61.870 C 77.159 62.288,77.388 62.681,77.489 62.743 C 77.589 62.805,77.830 63.170,78.023 63.553 C 78.216 63.936,78.512 64.382,78.681 64.542 C 78.850 64.703,79.064 65.121,79.159 65.470 C 79.253 65.819,79.524 66.288,79.763 66.511 C 80.001 66.734,80.301 67.167,80.429 67.473 C 80.557 67.779,80.851 68.254,81.081 68.528 C 81.311 68.802,81.500 69.127,81.500 69.250 C 81.500 69.373,81.689 69.698,81.919 69.972 C 82.149 70.246,82.457 70.758,82.602 71.110 C 82.747 71.462,83.024 71.921,83.217 72.131 C 83.617 72.564,84.319 73.727,84.848 74.833 C 85.045 75.246,85.338 75.733,85.499 75.917 C 85.660 76.100,85.880 76.524,85.987 76.858 C 86.094 77.192,86.403 77.698,86.674 77.981 C 86.945 78.265,87.167 78.604,87.167 78.736 C 87.167 78.867,87.355 79.198,87.586 79.472 C 87.816 79.746,88.125 80.258,88.272 80.610 C 88.419 80.962,88.755 81.496,89.020 81.797 C 89.284 82.099,89.500 82.449,89.500 82.576 C 89.500 82.704,89.697 83.042,89.938 83.328 C 90.383 83.858,90.806 84.574,91.578 86.108 C 91.815 86.581,92.132 87.068,92.282 87.192 C 92.431 87.315,92.734 87.792,92.954 88.250 C 93.523 89.432,94.353 90.860,94.792 91.409 C 94.998 91.667,95.167 91.970,95.167 92.083 C 95.167 92.195,95.356 92.566,95.588 92.908 L 96.009 93.529 95.654 94.104 C 95.417 94.488,94.958 94.847,94.274 95.183 C 92.730 95.941,91.283 96.717,90.826 97.030 C 90.601 97.185,90.218 97.360,89.975 97.419 C 89.732 97.479,89.376 97.674,89.184 97.853 C 88.993 98.031,88.479 98.330,88.043 98.517 C 87.607 98.703,87.100 98.996,86.917 99.167 C 86.733 99.338,86.246 99.638,85.833 99.835 C 84.550 100.446,83.410 101.069,82.903 101.435 C 82.636 101.629,82.144 101.875,81.812 101.983 C 81.479 102.091,81.077 102.323,80.917 102.499 C 80.758 102.675,80.270 102.938,79.833 103.083 C 79.397 103.228,78.909 103.491,78.749 103.667 C 78.590 103.843,78.188 104.074,77.855 104.180 C 77.522 104.287,77.063 104.546,76.833 104.757 C 76.604 104.967,76.004 105.332,75.500 105.566 C 74.996 105.800,74.471 106.062,74.333 106.147 C 71.551 107.878,70.353 108.107,69.192 107.130 C 68.908 106.891,68.392 106.605,68.046 106.494 C 67.700 106.383,67.265 106.154,67.079 105.985 C 66.893 105.816,66.407 105.560,66.000 105.417 C 65.593 105.273,65.106 105.012,64.919 104.836 C 64.732 104.660,64.317 104.406,63.998 104.272 C 63.678 104.139,63.198 103.841,62.932 103.611 C 62.665 103.382,62.178 103.144,61.848 103.084 C 61.519 103.024,61.025 102.764,60.750 102.507 C 60.475 102.250,59.978 101.953,59.645 101.847 C 59.312 101.741,58.910 101.510,58.751 101.334 C 58.591 101.158,58.103 100.895,57.667 100.750 C 57.230 100.605,56.739 100.339,56.576 100.159 C 56.414 99.979,56.002 99.757,55.663 99.666 C 55.323 99.574,54.762 99.274,54.416 99.000 C 54.070 98.725,53.696 98.500,53.583 98.500 C 53.471 98.500,53.098 98.277,52.755 98.004 C 52.412 97.732,51.879 97.461,51.571 97.403 C 51.263 97.345,50.834 97.122,50.618 96.906 C 50.402 96.690,49.874 96.363,49.445 96.179 C 49.016 95.995,48.513 95.703,48.328 95.530 C 48.142 95.358,47.707 95.132,47.360 95.028 C 46.054 94.636,45.498 93.316,46.282 92.463 C 46.473 92.254,46.824 91.695,47.062 91.220 C 47.299 90.745,47.568 90.311,47.659 90.255 C 47.750 90.199,47.964 89.837,48.135 89.451 C 48.306 89.066,48.578 88.641,48.740 88.507 C 48.903 88.373,49.219 87.885,49.445 87.423 C 50.169 85.938,50.652 85.118,51.059 84.679 C 51.278 84.443,51.503 84.056,51.558 83.819 C 51.614 83.582,51.883 83.107,52.156 82.763 C 52.430 82.419,52.703 81.975,52.763 81.777 C 52.823 81.579,53.040 81.192,53.245 80.917 C 53.450 80.642,53.752 80.154,53.917 79.833 C 54.082 79.512,54.346 79.158,54.505 79.046 C 54.664 78.934,54.909 78.555,55.049 78.203 C 55.190 77.852,55.430 77.461,55.582 77.334 C 55.735 77.208,56.041 76.746,56.263 76.308 C 56.485 75.870,56.814 75.433,56.994 75.337 C 57.174 75.240,57.410 74.865,57.519 74.503 C 57.627 74.141,57.892 73.679,58.108 73.477 C 58.324 73.274,58.500 73.024,58.500 72.922 C 58.500 72.819,58.761 72.326,59.079 71.826 C 59.398 71.326,59.660 70.788,59.662 70.631 C 59.665 70.474,59.878 70.099,60.136 69.797 C 60.395 69.496,60.707 68.987,60.831 68.667 C 60.955 68.346,61.224 67.933,61.429 67.750 C 61.634 67.567,61.886 67.148,61.988 66.819 C 62.091 66.490,62.360 65.969,62.587 65.661 C 62.814 65.354,63.000 65.010,63.000 64.897 C 63.000 64.784,63.186 64.471,63.413 64.201 C 63.641 63.931,63.968 63.380,64.141 62.978 C 64.313 62.575,64.585 62.137,64.745 62.004 C 64.904 61.872,65.219 61.385,65.445 60.923 C 66.131 59.516,66.642 58.632,66.979 58.266 C 67.157 58.074,67.421 57.627,67.567 57.273 C 67.713 56.918,68.057 56.372,68.333 56.058 C 68.608 55.745,68.833 55.412,68.833 55.318 C 68.833 55.143,70.022 53.074,70.328 52.715 C 70.710 52.269,71.883 53.024,72.219 53.932 M135.206 69.814 C 135.737 69.881,136.366 70.084,136.623 70.271 C 136.876 70.457,137.336 70.696,137.645 70.803 C 138.890 71.232,139.911 72.692,140.093 74.301 C 140.330 76.393,136.602 76.581,136.249 74.495 C 136.105 73.642,135.989 73.573,134.320 73.340 C 132.830 73.132,130.339 73.338,129.875 73.708 C 129.740 73.815,129.667 74.334,129.667 75.175 C 129.667 77.032,130.135 77.530,132.159 77.824 C 132.935 77.936,133.850 78.172,134.194 78.348 C 134.539 78.523,135.392 78.752,136.090 78.856 C 136.920 78.979,137.515 79.168,137.805 79.401 C 138.050 79.598,138.463 79.866,138.722 79.998 C 139.275 80.279,140.167 81.247,140.167 81.567 C 140.167 81.689,140.328 81.993,140.524 82.243 C 141.279 83.203,141.254 85.626,140.476 86.900 C 139.766 88.063,138.252 89.447,137.550 89.575 C 137.202 89.638,136.640 89.879,136.303 90.110 C 135.166 90.888,130.834 90.828,129.719 90.019 C 129.461 89.831,128.934 89.609,128.548 89.525 C 127.482 89.292,126.261 88.146,125.816 86.961 C 125.619 86.435,125.354 85.920,125.229 85.816 C 124.902 85.545,124.928 84.101,125.264 83.822 C 126.014 83.199,128.200 83.441,128.506 84.181 C 128.624 84.467,128.967 84.994,129.267 85.354 C 129.567 85.713,129.855 86.140,129.907 86.303 C 130.094 86.894,132.935 87.208,135.236 86.893 C 135.933 86.797,136.053 86.716,136.346 86.143 C 136.526 85.789,136.744 85.500,136.830 85.500 C 136.917 85.500,137.068 85.201,137.166 84.836 C 137.394 83.990,137.155 83.504,136.053 82.569 C 134.913 81.603,134.775 81.554,132.885 81.455 C 131.592 81.387,131.035 81.282,130.552 81.015 C 130.202 80.823,129.555 80.559,129.112 80.428 C 128.295 80.188,128.143 80.079,126.858 78.803 C 125.905 77.858,125.833 77.630,125.833 75.530 C 125.833 72.887,126.582 71.501,128.418 70.742 C 128.784 70.591,129.221 70.345,129.389 70.195 C 129.893 69.747,133.025 69.542,135.206 69.814 M229.963 70.497 C 230.721 70.879,231.459 71.371,231.603 71.589 C 231.746 71.808,232.008 72.033,232.184 72.089 C 232.361 72.145,232.655 72.467,232.837 72.804 C 233.019 73.141,233.324 73.611,233.514 73.849 C 234.053 74.524,234.150 76.148,233.677 76.575 C 232.689 77.466,230.452 76.862,230.247 75.649 C 230.186 75.288,230.033 74.901,229.907 74.788 C 229.781 74.676,229.582 74.499,229.464 74.395 C 229.346 74.292,229.134 74.065,228.991 73.890 C 228.244 72.974,223.071 73.130,222.637 74.082 C 222.546 74.281,222.260 74.570,222.000 74.723 C 221.643 74.934,221.502 75.173,221.418 75.709 C 221.357 76.098,221.088 76.881,220.820 77.448 C 220.146 78.876,220.102 81.485,220.733 82.670 C 220.953 83.083,221.223 83.757,221.333 84.168 C 221.528 84.891,222.409 85.906,223.465 86.622 C 225.228 87.818,230.167 86.471,230.167 84.794 C 230.167 83.638,232.842 82.865,233.738 83.762 C 234.189 84.213,233.893 86.498,233.384 86.501 C 233.310 86.501,233.113 86.833,232.947 87.239 C 232.780 87.645,232.442 88.105,232.197 88.261 C 231.951 88.418,231.600 88.727,231.417 88.948 C 231.221 89.185,230.774 89.419,230.333 89.517 C 229.921 89.609,229.290 89.886,228.931 90.134 C 227.944 90.814,224.357 90.812,223.083 90.131 C 222.625 89.886,222.025 89.632,221.750 89.568 C 221.475 89.503,221.016 89.255,220.730 89.017 C 220.445 88.778,219.939 88.374,219.606 88.119 C 219.274 87.863,218.879 87.413,218.728 87.119 C 218.577 86.824,218.284 86.380,218.076 86.132 C 217.847 85.857,217.655 85.336,217.585 84.799 C 217.516 84.272,217.291 83.653,217.026 83.264 C 216.391 82.327,216.343 77.969,216.959 76.980 C 217.165 76.648,217.409 75.978,217.502 75.490 C 217.594 75.002,217.801 74.422,217.960 74.200 C 218.120 73.979,218.407 73.540,218.599 73.226 C 219.174 72.284,220.702 71.031,221.495 70.853 C 221.882 70.766,222.381 70.523,222.605 70.313 C 223.616 69.364,227.928 69.471,229.963 70.497 M167.750 70.306 C 168.300 70.565,168.938 70.827,169.167 70.886 C 169.603 71.000,170.733 72.034,171.583 73.099 L 172.083 73.724 172.083 76.588 L 172.083 79.451 171.458 80.142 C 171.115 80.523,170.833 80.904,170.833 80.990 C 170.833 81.075,170.533 81.314,170.167 81.520 C 169.800 81.726,169.500 81.960,169.500 82.039 C 169.500 82.485,168.193 82.689,164.615 82.801 L 160.931 82.917 160.815 83.333 C 160.752 83.563,160.692 84.971,160.683 86.464 C 160.659 90.508,160.254 91.058,157.950 90.180 C 156.993 89.815,156.984 89.717,157.036 79.760 C 157.081 71.209,157.101 70.682,157.392 70.360 C 157.819 69.889,157.893 69.882,162.583 69.856 L 166.750 69.834 167.750 70.306 M200.911 70.070 C 201.572 70.346,201.889 71.174,201.726 72.194 C 201.533 73.404,201.523 73.407,196.358 73.500 L 191.750 73.583 191.703 75.543 C 191.635 78.370,191.260 78.135,195.931 78.197 L 199.863 78.250 200.265 78.718 C 200.796 79.336,200.833 80.667,200.333 81.167 C 200.018 81.482,199.778 81.500,195.920 81.500 L 191.840 81.500 191.747 81.875 C 191.696 82.081,191.676 83.262,191.702 84.500 L 191.750 86.750 196.555 86.833 C 202.090 86.929,201.833 86.847,201.833 88.523 C 201.833 89.296,201.756 89.572,201.431 89.949 L 201.029 90.417 194.833 90.417 L 188.637 90.417 188.328 90.034 C 187.840 89.432,187.811 88.770,187.865 79.484 C 187.920 70.103,187.899 70.335,188.744 69.992 C 189.382 69.733,200.272 69.803,200.911 70.070 M263.812 70.018 C 264.497 70.256,264.703 70.669,264.690 71.777 C 264.672 73.285,264.257 73.500,261.364 73.500 C 260.274 73.500,259.166 73.576,258.900 73.668 L 258.417 73.837 258.463 81.372 C 258.497 86.824,258.456 89.036,258.316 89.376 C 257.886 90.414,256.850 90.761,255.746 90.237 C 254.670 89.726,254.667 89.702,254.667 81.360 C 254.667 75.537,254.620 73.823,254.458 73.718 C 254.344 73.644,253.189 73.545,251.891 73.499 C 249.226 73.404,248.949 73.288,248.774 72.194 C 248.615 71.203,248.930 70.348,249.553 70.077 C 250.240 69.778,262.973 69.725,263.812 70.018 M290.725 70.283 C 290.981 70.485,291.579 70.763,292.053 70.901 C 293.245 71.248,294.401 72.428,294.681 73.583 C 294.792 74.042,295.021 74.695,295.191 75.035 C 295.559 75.771,295.602 77.279,295.270 77.755 C 295.144 77.935,294.953 78.505,294.846 79.021 C 294.705 79.700,294.516 80.079,294.159 80.397 C 293.888 80.638,293.667 80.908,293.667 80.997 C 293.667 81.086,293.423 81.283,293.125 81.435 C 292.562 81.724,291.334 82.824,291.333 83.040 C 291.333 83.108,291.556 83.362,291.828 83.605 C 292.100 83.847,292.409 84.316,292.515 84.648 C 292.620 84.979,292.877 85.438,293.085 85.667 C 293.293 85.896,293.514 86.252,293.576 86.459 C 293.639 86.666,293.883 87.065,294.119 87.346 C 294.356 87.627,294.642 88.245,294.755 88.720 C 294.868 89.195,294.989 89.692,295.022 89.825 C 295.094 90.108,294.190 90.476,293.390 90.491 C 292.675 90.503,291.073 89.214,290.916 88.498 C 290.855 88.220,290.634 87.788,290.425 87.538 C 290.216 87.288,289.891 86.778,289.702 86.406 C 289.512 86.033,289.242 85.631,289.100 85.514 C 288.958 85.396,288.793 85.037,288.733 84.716 C 288.663 84.347,288.366 83.875,287.926 83.434 L 287.228 82.737 285.842 82.774 C 284.016 82.822,284.097 82.670,284.000 86.216 C 283.899 89.886,283.594 90.500,281.872 90.500 C 280.188 90.500,280.137 90.168,280.198 79.527 L 280.250 70.470 280.655 70.142 C 281.309 69.613,290.029 69.735,290.725 70.283 M321.818 70.042 C 321.909 70.156,322.244 70.553,322.563 70.924 C 322.980 71.408,323.217 71.915,323.404 72.721 C 323.547 73.338,323.814 74.047,323.997 74.297 C 324.180 74.546,324.407 75.160,324.501 75.661 C 324.595 76.163,324.855 76.838,325.078 77.161 C 325.302 77.485,325.530 78.087,325.586 78.500 C 325.758 79.767,325.820 79.958,326.221 80.445 C 326.434 80.705,326.733 81.427,326.884 82.052 C 327.035 82.676,327.307 83.375,327.487 83.605 C 327.668 83.835,327.867 84.374,327.928 84.803 C 327.989 85.232,328.252 85.910,328.512 86.309 C 329.375 87.633,329.507 89.945,328.737 90.266 C 327.165 90.923,325.551 89.954,325.315 88.212 C 325.238 87.650,325.046 87.155,324.783 86.842 C 324.509 86.517,324.305 85.972,324.174 85.218 C 324.053 84.522,323.846 83.943,323.637 83.720 C 323.446 83.516,323.194 82.860,323.059 82.220 C 322.928 81.595,322.642 80.821,322.423 80.500 C 322.204 80.179,321.974 79.542,321.912 79.083 C 321.849 78.624,321.606 77.965,321.370 77.616 C 321.110 77.230,320.870 76.544,320.759 75.866 C 320.534 74.497,320.200 74.377,319.899 75.559 C 319.785 76.004,319.534 76.536,319.341 76.742 C 319.123 76.974,318.927 77.505,318.825 78.139 C 318.634 79.327,318.404 80.000,318.191 80.000 C 317.988 80.000,317.717 80.752,317.589 81.667 C 317.532 82.079,317.299 82.686,317.071 83.015 C 316.844 83.345,316.588 84.042,316.503 84.566 C 316.407 85.154,316.194 85.700,315.946 85.995 C 315.662 86.333,315.491 86.832,315.363 87.695 C 315.028 89.951,313.041 91.163,311.419 90.100 C 310.877 89.745,310.753 88.905,311.164 88.382 C 311.345 88.152,311.543 87.590,311.603 87.133 C 311.670 86.632,311.869 86.119,312.105 85.838 C 312.333 85.567,312.593 84.913,312.726 84.278 C 312.865 83.617,313.119 82.990,313.369 82.693 C 313.644 82.366,313.818 81.904,313.888 81.313 C 313.946 80.824,314.147 80.216,314.335 79.962 C 314.524 79.707,314.820 78.928,314.995 78.230 C 315.169 77.533,315.453 76.830,315.625 76.670 C 315.819 76.489,316.021 75.919,316.153 75.179 C 316.300 74.358,316.492 73.846,316.763 73.553 C 316.981 73.318,317.203 72.854,317.256 72.521 C 317.455 71.277,317.537 71.091,318.158 70.470 L 318.794 69.833 320.224 69.833 C 321.169 69.833,321.709 69.904,321.818 70.042 M348.433 70.184 C 348.733 70.516,348.754 70.968,348.833 78.642 L 348.917 86.750 353.524 86.833 C 359.032 86.933,358.911 86.892,358.800 88.628 C 358.682 90.491,358.973 90.408,352.371 90.465 C 346.062 90.520,345.920 90.497,345.302 89.333 C 344.885 88.547,344.905 71.599,345.324 70.780 C 345.813 69.824,347.767 69.449,348.433 70.184 M160.768 73.764 C 160.602 74.196,160.653 78.943,160.829 79.406 L 160.992 79.833 163.371 79.828 L 165.750 79.823 167.000 79.203 L 168.250 78.583 168.297 76.776 L 168.345 74.968 167.611 74.234 L 166.877 73.500 163.873 73.500 C 161.287 73.500,160.855 73.537,160.768 73.764 M284.264 73.719 C 283.854 74.019,283.917 79.401,284.333 79.679 C 284.788 79.982,289.078 79.799,289.452 79.460 C 289.628 79.301,290.010 79.088,290.300 78.987 C 290.771 78.822,290.873 78.663,291.228 77.536 L 291.628 76.270 291.095 75.093 C 290.644 74.095,290.476 73.886,289.990 73.718 C 289.165 73.432,284.656 73.433,284.264 73.719 " stroke="none" fill="#040404" fill-rule="evenodd"></path><path id="path2" d="M58.295 74.010 C 57.953 74.190,57.562 74.553,57.426 74.816 C 57.290 75.078,57.067 75.336,56.930 75.389 C 56.792 75.441,56.496 75.849,56.270 76.294 C 56.044 76.740,55.735 77.208,55.582 77.334 C 55.430 77.461,55.190 77.852,55.049 78.203 C 54.909 78.555,54.664 78.934,54.505 79.046 C 54.346 79.158,54.082 79.512,53.917 79.833 C 53.752 80.154,53.450 80.642,53.245 80.917 C 53.040 81.192,52.823 81.579,52.763 81.777 C 52.703 81.975,52.430 82.419,52.156 82.763 C 51.883 83.107,51.614 83.582,51.558 83.819 C 51.503 84.056,51.278 84.443,51.059 84.679 C 50.652 85.118,50.169 85.938,49.445 87.423 C 49.219 87.885,48.903 88.373,48.740 88.507 C 48.578 88.641,48.306 89.066,48.135 89.451 C 47.964 89.837,47.750 90.199,47.659 90.255 C 47.568 90.311,47.299 90.745,47.062 91.220 C 46.824 91.695,46.473 92.254,46.282 92.463 C 45.498 93.316,46.054 94.636,47.360 95.028 C 47.707 95.132,48.142 95.358,48.328 95.530 C 48.513 95.703,49.016 95.995,49.445 96.179 C 49.874 96.363,50.402 96.690,50.618 96.906 C 50.834 97.122,51.263 97.345,51.571 97.403 C 51.879 97.461,52.412 97.732,52.755 98.004 C 53.098 98.277,53.471 98.500,53.583 98.500 C 53.696 98.500,54.070 98.725,54.416 99.000 C 54.762 99.274,55.323 99.574,55.663 99.666 C 56.002 99.757,56.414 99.979,56.576 100.159 C 56.739 100.339,57.230 100.605,57.667 100.750 C 58.103 100.895,58.591 101.158,58.751 101.334 C 58.910 101.510,59.312 101.741,59.645 101.847 C 59.978 101.953,60.475 102.250,60.750 102.507 C 61.025 102.764,61.519 103.024,61.848 103.084 C 62.178 103.144,62.665 103.382,62.932 103.611 C 63.198 103.841,63.678 104.139,63.998 104.272 C 64.317 104.406,64.732 104.660,64.919 104.836 C 65.106 105.012,65.593 105.273,66.000 105.417 C 66.407 105.560,66.893 105.816,67.079 105.985 C 67.265 106.154,67.700 106.383,68.046 106.494 C 68.392 106.605,68.908 106.891,69.192 107.130 C 70.353 108.107,71.551 107.878,74.333 106.147 C 74.471 106.062,74.996 105.800,75.500 105.566 C 76.004 105.332,76.604 104.967,76.833 104.757 C 77.063 104.546,77.522 104.287,77.855 104.180 C 78.188 104.074,78.590 103.843,78.749 103.667 C 78.909 103.491,79.397 103.228,79.833 103.083 C 80.270 102.938,80.758 102.675,80.917 102.499 C 81.077 102.323,81.479 102.091,81.812 101.983 C 82.144 101.875,82.636 101.629,82.903 101.435 C 83.410 101.069,84.550 100.446,85.833 99.835 C 86.246 99.638,86.733 99.338,86.917 99.167 C 87.100 98.996,87.607 98.703,88.043 98.517 C 88.479 98.330,88.993 98.031,89.184 97.853 C 89.376 97.674,89.732 97.479,89.975 97.419 C 90.218 97.360,90.601 97.185,90.826 97.030 C 91.283 96.717,92.730 95.941,94.274 95.183 C 94.958 94.847,95.417 94.488,95.654 94.104 L 96.009 93.529 95.588 92.908 C 95.356 92.566,95.167 92.195,95.167 92.083 C 95.167 91.970,94.998 91.667,94.792 91.409 C 94.353 90.860,93.523 89.432,92.954 88.250 C 92.734 87.792,92.431 87.315,92.282 87.192 C 92.132 87.068,91.815 86.581,91.578 86.108 C 90.806 84.574,90.383 83.858,89.938 83.328 C 89.697 83.042,89.500 82.704,89.500 82.576 C 89.500 82.449,89.284 82.099,89.020 81.797 C 88.755 81.496,88.419 80.962,88.272 80.610 C 88.125 80.258,87.816 79.746,87.586 79.472 C 87.355 79.198,87.167 78.868,87.167 78.738 C 87.167 78.607,86.904 78.222,86.583 77.882 C 86.263 77.542,86.000 77.183,86.000 77.084 C 86.000 76.985,85.773 76.644,85.496 76.327 L 84.992 75.750 85.413 76.398 C 85.644 76.755,85.833 77.146,85.833 77.267 C 85.833 77.389,86.048 77.735,86.309 78.036 C 86.571 78.337,86.874 78.854,86.981 79.184 C 87.088 79.514,87.358 79.955,87.580 80.163 C 87.801 80.371,88.030 80.759,88.089 81.025 C 88.147 81.291,88.377 81.724,88.600 81.989 C 88.822 82.254,89.124 82.757,89.271 83.107 C 89.417 83.458,89.670 83.838,89.833 83.952 C 89.995 84.065,90.179 84.431,90.242 84.765 C 90.304 85.098,90.545 85.560,90.777 85.792 C 91.009 86.024,91.339 86.541,91.510 86.940 C 91.681 87.340,91.898 87.667,91.992 87.667 C 92.227 87.667,92.667 88.770,92.667 89.361 C 92.667 89.659,92.829 90.011,93.083 90.265 C 93.353 90.534,93.501 90.871,93.503 91.216 C 93.506 91.899,93.650 92.114,94.167 92.211 C 94.502 92.273,94.471 92.292,94.011 92.311 C 93.641 92.325,93.311 92.214,93.078 91.995 C 92.854 91.785,92.312 91.593,91.650 91.490 C 91.064 91.398,89.961 91.100,89.200 90.828 C 88.439 90.556,87.534 90.333,87.190 90.333 C 86.775 90.333,86.372 90.188,85.991 89.900 C 85.248 89.340,82.243 89.388,81.288 89.975 C 80.992 90.157,80.450 90.356,80.083 90.418 C 79.717 90.480,79.223 90.667,78.987 90.833 C 78.750 90.999,77.932 91.252,77.169 91.396 C 76.272 91.566,75.651 91.780,75.415 92.002 C 75.086 92.311,74.874 92.341,73.326 92.298 L 71.603 92.250 71.129 89.250 C 70.809 87.223,70.558 86.115,70.354 85.833 C 70.187 85.604,69.926 85.174,69.773 84.878 L 69.495 84.340 65.972 84.295 L 62.450 84.250 62.239 83.641 C 62.043 83.073,62.056 83.005,62.434 82.650 C 62.665 82.433,62.884 81.989,62.944 81.619 C 63.001 81.262,63.225 80.758,63.442 80.501 C 63.660 80.241,63.910 79.635,64.001 79.141 C 64.100 78.608,64.301 78.138,64.502 77.972 C 64.686 77.819,64.883 77.444,64.940 77.139 C 64.998 76.833,65.241 76.322,65.481 76.002 C 65.720 75.682,65.954 75.120,66.000 74.752 C 66.072 74.171,66.144 74.076,66.542 74.031 C 66.794 74.002,67.000 73.908,67.000 73.822 C 67.000 73.476,58.979 73.649,58.295 74.010 " stroke="none" fill="#ec3a22" fill-rule="evenodd"></path><path id="path3" d="M71.035 54.207 C 70.909 54.359,70.841 56.607,70.817 61.388 L 70.783 68.346 70.327 68.671 C 70.076 68.850,69.745 69.315,69.591 69.706 C 69.437 70.097,69.174 70.529,69.007 70.667 C 68.839 70.804,68.649 71.104,68.584 71.333 C 68.481 71.696,68.495 71.716,68.691 71.488 C 68.815 71.344,69.113 71.106,69.352 70.958 C 69.639 70.781,69.851 70.442,69.972 69.969 C 70.119 69.391,70.325 69.125,71.021 68.612 L 71.886 67.973 75.703 68.028 C 79.406 68.082,79.528 68.094,79.801 68.450 C 79.956 68.651,80.308 68.898,80.583 68.997 L 81.083 69.179 80.636 68.798 C 80.389 68.588,80.069 68.123,79.924 67.763 C 79.779 67.404,79.517 67.010,79.343 66.888 C 79.168 66.766,78.933 66.386,78.820 66.044 C 78.708 65.703,78.408 65.216,78.154 64.962 C 77.901 64.709,77.644 64.275,77.583 63.999 C 77.523 63.723,77.323 63.417,77.139 63.319 C 76.955 63.220,76.696 62.879,76.563 62.559 C 76.429 62.240,76.098 61.672,75.827 61.298 C 75.555 60.923,75.333 60.489,75.333 60.333 C 75.333 60.177,75.113 59.819,74.844 59.537 C 74.574 59.255,74.263 58.721,74.152 58.349 C 74.039 57.972,73.818 57.631,73.652 57.579 C 73.488 57.527,73.268 57.223,73.163 56.904 C 73.057 56.586,72.788 56.107,72.565 55.841 C 72.341 55.575,72.059 55.071,71.937 54.721 C 71.704 54.046,71.341 53.840,71.035 54.207 " stroke="none" fill="#34c4e3" fill-rule="evenodd"></path><path id="path4" d="M70.328 52.715 C 70.022 53.074,68.833 55.143,68.833 55.318 C 68.833 55.412,68.608 55.745,68.333 56.058 C 68.057 56.372,67.713 56.918,67.567 57.273 C 67.421 57.627,67.157 58.074,66.979 58.266 C 66.642 58.632,66.131 59.516,65.445 60.923 C 65.219 61.385,64.904 61.872,64.745 62.004 C 64.585 62.137,64.313 62.575,64.141 62.978 C 63.968 63.380,63.641 63.931,63.413 64.201 C 63.186 64.471,63.000 64.784,63.000 64.897 C 63.000 65.010,62.814 65.354,62.587 65.661 C 62.360 65.969,62.091 66.490,61.988 66.819 C 61.886 67.148,61.634 67.567,61.429 67.750 C 61.224 67.933,60.955 68.346,60.831 68.667 C 60.707 68.987,60.395 69.496,60.136 69.797 C 59.878 70.099,59.665 70.474,59.662 70.631 C 59.660 70.788,59.398 71.326,59.079 71.826 C 58.761 72.326,58.500 72.819,58.500 72.922 C 58.500 73.024,58.320 73.278,58.099 73.485 C 57.390 74.151,57.419 74.537,58.145 74.107 C 58.708 73.775,59.038 73.744,62.917 73.667 L 67.083 73.583 67.137 73.207 C 67.166 73.000,67.481 72.596,67.836 72.311 C 68.206 72.014,68.528 71.586,68.588 71.311 C 68.646 71.047,68.826 70.760,68.988 70.673 C 69.150 70.587,69.412 70.176,69.571 69.760 C 69.729 69.344,70.067 68.856,70.321 68.675 L 70.783 68.346 70.816 61.381 C 70.843 55.731,70.893 54.373,71.079 54.186 C 71.407 53.854,71.784 54.063,71.912 54.647 C 71.973 54.923,72.238 55.421,72.502 55.753 C 72.766 56.085,73.065 56.610,73.168 56.920 C 73.270 57.230,73.488 57.527,73.652 57.579 C 73.818 57.631,74.039 57.972,74.152 58.349 C 74.263 58.721,74.574 59.255,74.844 59.537 C 75.113 59.819,75.333 60.177,75.333 60.333 C 75.333 60.489,75.555 60.923,75.827 61.298 C 76.098 61.672,76.429 62.240,76.563 62.559 C 76.696 62.879,76.955 63.220,77.139 63.319 C 77.323 63.417,77.523 63.723,77.583 63.999 C 77.644 64.275,77.901 64.709,78.154 64.962 C 78.408 65.216,78.708 65.703,78.820 66.044 C 78.933 66.386,79.166 66.764,79.339 66.885 C 79.511 67.006,79.800 67.451,79.982 67.874 C 80.163 68.297,80.464 68.725,80.650 68.824 C 80.836 68.924,81.066 69.292,81.160 69.643 C 81.255 69.994,81.490 70.424,81.684 70.599 C 81.878 70.774,82.217 71.273,82.437 71.708 C 82.658 72.144,82.911 72.500,82.998 72.500 C 83.086 72.500,83.316 72.870,83.511 73.321 C 83.705 73.773,83.972 74.184,84.103 74.235 C 84.235 74.285,84.487 74.647,84.665 75.038 C 85.009 75.798,86.106 77.169,85.900 76.583 C 85.836 76.400,85.654 76.100,85.495 75.917 C 85.336 75.733,85.045 75.246,84.848 74.833 C 84.319 73.727,83.617 72.564,83.217 72.131 C 83.024 71.921,82.747 71.462,82.602 71.110 C 82.457 70.758,82.149 70.246,81.919 69.972 C 81.689 69.698,81.500 69.373,81.500 69.250 C 81.500 69.127,81.311 68.802,81.081 68.528 C 80.851 68.254,80.557 67.779,80.429 67.473 C 80.301 67.167,80.001 66.734,79.763 66.511 C 79.524 66.288,79.253 65.819,79.159 65.470 C 79.064 65.121,78.850 64.703,78.681 64.542 C 78.512 64.382,78.216 63.936,78.023 63.553 C 77.830 63.170,77.589 62.805,77.489 62.743 C 77.388 62.681,77.159 62.288,76.980 61.870 C 76.801 61.452,76.475 60.944,76.255 60.740 C 76.036 60.537,75.775 60.071,75.677 59.705 C 75.578 59.338,75.380 58.941,75.236 58.822 C 75.092 58.702,74.791 58.243,74.568 57.802 C 74.344 57.361,74.095 57.000,74.015 57.000 C 73.935 57.000,73.743 56.681,73.589 56.292 C 73.434 55.902,73.131 55.396,72.915 55.167 C 72.699 54.938,72.386 54.382,72.219 53.932 C 71.883 53.024,70.710 52.269,70.328 52.715 M130.555 69.818 C 130.082 69.876,129.557 70.046,129.389 70.195 C 129.221 70.345,128.784 70.591,128.418 70.742 C 126.582 71.501,125.833 72.887,125.833 75.530 C 125.833 77.630,125.905 77.858,126.858 78.803 C 128.143 80.079,128.295 80.188,129.112 80.428 C 129.555 80.559,130.202 80.823,130.552 81.015 C 131.035 81.282,131.592 81.387,132.885 81.455 C 134.775 81.554,134.913 81.603,136.053 82.569 C 137.155 83.504,137.394 83.990,137.166 84.836 C 137.068 85.201,136.917 85.500,136.830 85.500 C 136.744 85.500,136.526 85.789,136.346 86.143 C 136.053 86.716,135.933 86.797,135.236 86.893 C 132.935 87.208,130.094 86.894,129.907 86.303 C 129.855 86.140,129.567 85.713,129.267 85.354 C 128.967 84.994,128.624 84.467,128.506 84.181 C 128.200 83.441,126.014 83.199,125.264 83.822 C 124.928 84.101,124.902 85.545,125.229 85.816 C 125.354 85.920,125.619 86.435,125.816 86.961 C 126.261 88.146,127.482 89.292,128.548 89.525 C 128.934 89.609,129.461 89.831,129.719 90.019 C 130.834 90.828,135.166 90.888,136.303 90.110 C 136.640 89.879,137.202 89.638,137.550 89.575 C 138.252 89.447,139.766 88.063,140.476 86.900 C 141.254 85.626,141.279 83.203,140.524 82.243 C 140.328 81.993,140.167 81.689,140.167 81.567 C 140.167 81.247,139.275 80.279,138.722 79.998 C 138.463 79.866,138.050 79.598,137.805 79.401 C 137.515 79.168,136.920 78.979,136.090 78.856 C 135.392 78.752,134.539 78.523,134.194 78.348 C 133.850 78.172,132.935 77.936,132.159 77.824 C 130.135 77.530,129.667 77.032,129.667 75.175 C 129.667 74.334,129.740 73.815,129.875 73.708 C 130.339 73.338,132.830 73.132,134.320 73.340 C 135.989 73.573,136.105 73.642,136.249 74.495 C 136.410 75.450,136.822 75.729,138.179 75.806 C 139.900 75.903,140.244 75.633,140.093 74.301 C 139.911 72.692,138.890 71.232,137.645 70.803 C 137.336 70.696,136.876 70.457,136.623 70.271 C 135.907 69.747,132.953 69.526,130.555 69.818 M223.798 69.810 C 223.340 69.880,222.842 70.090,222.605 70.313 C 222.381 70.523,221.882 70.766,221.495 70.853 C 220.702 71.031,219.174 72.284,218.599 73.226 C 218.407 73.540,218.120 73.979,217.960 74.200 C 217.801 74.422,217.594 75.002,217.502 75.490 C 217.409 75.978,217.165 76.648,216.959 76.980 C 216.343 77.969,216.391 82.327,217.026 83.264 C 217.291 83.653,217.516 84.272,217.585 84.799 C 217.655 85.336,217.847 85.857,218.076 86.132 C 218.284 86.380,218.577 86.824,218.728 87.119 C 218.879 87.413,219.274 87.863,219.606 88.119 C 219.939 88.374,220.445 88.778,220.730 89.017 C 221.016 89.255,221.475 89.503,221.750 89.568 C 222.025 89.632,222.625 89.886,223.083 90.131 C 224.357 90.812,227.944 90.814,228.931 90.134 C 229.290 89.886,229.921 89.609,230.333 89.517 C 230.774 89.419,231.221 89.185,231.417 88.948 C 231.600 88.727,231.951 88.418,232.197 88.261 C 232.442 88.105,232.780 87.645,232.947 87.239 C 233.113 86.833,233.310 86.501,233.384 86.501 C 233.893 86.498,234.189 84.213,233.738 83.762 C 232.842 82.865,230.167 83.638,230.167 84.794 C 230.167 86.471,225.228 87.818,223.465 86.622 C 222.409 85.906,221.528 84.891,221.333 84.168 C 221.223 83.757,220.953 83.083,220.733 82.670 C 220.102 81.485,220.146 78.876,220.820 77.448 C 221.088 76.881,221.357 76.098,221.418 75.709 C 221.502 75.173,221.643 74.934,222.000 74.723 C 222.260 74.570,222.546 74.281,222.637 74.082 C 223.071 73.130,228.244 72.974,228.991 73.890 C 229.134 74.065,229.346 74.292,229.464 74.395 C 229.582 74.499,229.781 74.676,229.907 74.788 C 230.033 74.901,230.186 75.288,230.247 75.649 C 230.452 76.862,232.689 77.466,233.677 76.575 C 234.150 76.148,234.053 74.524,233.514 73.849 C 233.324 73.611,233.019 73.141,232.837 72.804 C 232.655 72.467,232.361 72.145,232.184 72.089 C 232.008 72.033,231.746 71.808,231.603 71.589 C 230.713 70.232,226.820 69.344,223.798 69.810 M158.059 69.949 C 157.056 70.145,157.088 69.840,157.036 79.760 C 156.984 89.717,156.993 89.815,157.950 90.180 C 160.254 91.058,160.659 90.508,160.683 86.464 C 160.692 84.971,160.752 83.563,160.815 83.333 L 160.931 82.917 164.615 82.801 C 168.193 82.689,169.500 82.485,169.500 82.039 C 169.500 81.960,169.800 81.726,170.167 81.520 C 170.533 81.314,170.833 81.075,170.833 80.990 C 170.833 80.904,171.115 80.523,171.458 80.142 L 172.083 79.451 172.083 76.588 L 172.083 73.724 171.583 73.099 C 170.733 72.034,169.603 71.000,169.167 70.886 C 168.938 70.827,168.300 70.565,167.750 70.306 L 166.750 69.834 162.583 69.856 C 160.292 69.869,158.256 69.910,158.059 69.949 M188.744 69.992 C 187.899 70.335,187.920 70.103,187.865 79.484 C 187.811 88.770,187.840 89.432,188.328 90.034 L 188.637 90.417 194.833 90.417 L 201.029 90.417 201.431 89.949 C 201.756 89.572,201.833 89.296,201.833 88.523 C 201.833 86.847,202.090 86.929,196.555 86.833 L 191.750 86.750 191.702 84.500 C 191.676 83.262,191.696 82.081,191.747 81.875 L 191.840 81.500 195.920 81.500 C 199.778 81.500,200.018 81.482,200.333 81.167 C 200.833 80.667,200.796 79.336,200.265 78.718 L 199.863 78.250 195.931 78.197 C 191.260 78.135,191.635 78.370,191.703 75.543 L 191.750 73.583 196.358 73.500 C 201.523 73.407,201.533 73.404,201.726 72.194 C 201.889 71.174,201.572 70.346,200.911 70.070 C 200.272 69.803,189.382 69.733,188.744 69.992 M249.553 70.077 C 248.930 70.348,248.615 71.203,248.774 72.194 C 248.949 73.288,249.226 73.404,251.891 73.499 C 253.189 73.545,254.344 73.644,254.458 73.718 C 254.620 73.823,254.667 75.537,254.667 81.360 C 254.667 89.702,254.670 89.726,255.746 90.237 C 256.850 90.761,257.886 90.414,258.316 89.376 C 258.456 89.036,258.497 86.824,258.463 81.372 L 258.417 73.837 258.900 73.668 C 259.166 73.576,260.274 73.500,261.364 73.500 C 264.257 73.500,264.672 73.285,264.690 71.777 C 264.703 70.669,264.497 70.256,263.812 70.018 C 262.973 69.725,250.240 69.778,249.553 70.077 M280.655 70.142 L 280.250 70.470 280.198 79.527 C 280.137 90.168,280.188 90.500,281.872 90.500 C 283.594 90.500,283.899 89.886,284.000 86.216 C 284.097 82.670,284.016 82.822,285.842 82.774 L 287.228 82.737 287.926 83.434 C 288.366 83.875,288.663 84.347,288.733 84.716 C 288.793 85.037,288.958 85.396,289.100 85.514 C 289.242 85.631,289.512 86.033,289.702 86.406 C 289.891 86.778,290.216 87.288,290.425 87.538 C 290.634 87.788,290.855 88.220,290.916 88.498 C 291.073 89.214,292.675 90.503,293.390 90.491 C 294.190 90.476,295.094 90.108,295.022 89.825 C 294.989 89.692,294.868 89.195,294.755 88.720 C 294.642 88.245,294.356 87.627,294.119 87.346 C 293.883 87.065,293.639 86.666,293.576 86.459 C 293.514 86.252,293.293 85.896,293.085 85.667 C 292.877 85.438,292.620 84.979,292.515 84.648 C 292.409 84.316,292.100 83.847,291.828 83.605 C 291.556 83.362,291.333 83.108,291.333 83.040 C 291.334 82.824,292.562 81.724,293.125 81.435 C 293.423 81.283,293.667 81.086,293.667 80.997 C 293.667 80.908,293.888 80.638,294.159 80.397 C 294.516 80.079,294.705 79.700,294.846 79.021 C 294.953 78.505,295.144 77.935,295.270 77.755 C 295.602 77.279,295.559 75.771,295.191 75.035 C 295.021 74.695,294.792 74.042,294.681 73.583 C 294.401 72.428,293.245 71.248,292.053 70.901 C 291.579 70.763,290.981 70.485,290.725 70.283 C 290.029 69.735,281.309 69.613,280.655 70.142 M318.158 70.470 C 317.537 71.091,317.455 71.277,317.256 72.521 C 317.203 72.854,316.981 73.318,316.763 73.553 C 316.492 73.846,316.300 74.358,316.153 75.179 C 316.021 75.919,315.819 76.489,315.625 76.670 C 315.453 76.830,315.169 77.533,314.995 78.230 C 314.820 78.928,314.524 79.707,314.335 79.962 C 314.147 80.216,313.946 80.824,313.888 81.313 C 313.818 81.904,313.644 82.366,313.369 82.693 C 313.119 82.990,312.865 83.617,312.726 84.278 C 312.593 84.913,312.333 85.567,312.105 85.838 C 311.869 86.119,311.670 86.632,311.603 87.133 C 311.543 87.590,311.345 88.152,311.164 88.382 C 310.753 88.905,310.877 89.745,311.419 90.100 C 313.041 91.163,315.028 89.951,315.363 87.695 C 315.491 86.832,315.662 86.333,315.946 85.995 C 316.194 85.700,316.407 85.154,316.503 84.566 C 316.588 84.042,316.844 83.345,317.071 83.015 C 317.299 82.686,317.532 82.079,317.589 81.667 C 317.717 80.752,317.988 80.000,318.191 80.000 C 318.404 80.000,318.634 79.327,318.825 78.139 C 318.927 77.505,319.123 76.974,319.341 76.742 C 319.534 76.536,319.785 76.004,319.899 75.559 C 320.200 74.377,320.534 74.497,320.759 75.866 C 320.870 76.544,321.110 77.230,321.370 77.616 C 321.606 77.965,321.849 78.624,321.912 79.083 C 321.974 79.542,322.204 80.179,322.423 80.500 C 322.642 80.821,322.928 81.595,323.059 82.220 C 323.194 82.860,323.446 83.516,323.637 83.720 C 323.846 83.943,324.053 84.522,324.174 85.218 C 324.305 85.972,324.509 86.517,324.783 86.842 C 325.046 87.155,325.238 87.650,325.315 88.212 C 325.551 89.954,327.165 90.923,328.737 90.266 C 329.507 89.945,329.375 87.633,328.512 86.309 C 328.252 85.910,327.989 85.232,327.928 84.803 C 327.867 84.374,327.668 83.835,327.487 83.605 C 327.307 83.375,327.035 82.676,326.884 82.052 C 326.733 81.427,326.434 80.705,326.221 80.445 C 325.820 79.958,325.758 79.767,325.586 78.500 C 325.530 78.087,325.302 77.485,325.078 77.161 C 324.855 76.838,324.595 76.163,324.501 75.661 C 324.407 75.160,324.180 74.546,323.997 74.297 C 323.814 74.047,323.547 73.338,323.404 72.721 C 323.217 71.915,322.980 71.408,322.563 70.924 C 322.244 70.553,321.909 70.156,321.818 70.042 C 321.709 69.904,321.169 69.833,320.224 69.833 L 318.794 69.833 318.158 70.470 M345.990 70.079 C 345.083 70.572,345.087 70.534,345.038 80.000 C 344.977 91.689,344.169 90.536,352.371 90.465 C 358.973 90.408,358.682 90.491,358.800 88.628 C 358.911 86.892,359.032 86.933,353.524 86.833 L 348.917 86.750 348.833 78.642 C 348.737 69.311,348.829 69.828,347.266 69.840 C 346.799 69.844,346.225 69.951,345.990 70.079 M136.040 70.448 C 136.339 70.622,136.921 70.891,137.333 71.047 C 138.657 71.547,139.833 73.215,139.833 74.591 C 139.833 76.020,136.844 75.866,136.573 74.423 C 136.308 73.005,133.758 72.324,131.202 72.988 C 129.721 73.372,129.564 73.495,129.368 74.411 C 128.943 76.403,129.764 77.759,131.583 78.069 C 131.950 78.132,132.813 78.361,133.500 78.579 C 134.188 78.796,135.256 79.057,135.875 79.159 C 137.407 79.410,139.219 80.549,139.749 81.594 C 139.932 81.955,140.218 82.456,140.385 82.707 C 141.131 83.834,140.272 87.503,139.120 88.106 C 138.897 88.223,138.594 88.503,138.447 88.727 C 138.270 88.998,137.957 89.173,137.516 89.247 C 137.151 89.309,136.567 89.516,136.218 89.707 C 135.249 90.238,131.524 90.340,130.451 89.866 C 130.038 89.683,129.298 89.416,128.808 89.274 C 127.209 88.808,125.500 86.445,125.500 84.701 C 125.500 83.615,127.826 83.377,128.262 84.419 C 129.315 86.940,131.141 87.798,134.451 87.328 C 139.140 86.663,138.351 81.848,133.449 81.214 C 132.430 81.083,131.331 80.860,131.007 80.720 C 130.682 80.579,130.075 80.370,129.657 80.256 C 127.382 79.631,126.167 77.999,126.167 75.571 C 126.167 72.874,126.750 71.943,129.167 70.784 C 130.995 69.906,134.790 69.721,136.040 70.448 M229.333 70.643 C 229.929 70.931,230.492 71.168,230.583 71.170 C 230.815 71.175,232.667 72.932,232.667 73.147 C 232.667 73.243,232.892 73.677,233.167 74.110 C 234.272 75.852,233.590 76.951,231.670 76.519 C 230.893 76.345,230.749 76.202,230.514 75.375 C 230.212 74.310,229.068 73.416,227.502 73.020 C 224.416 72.240,221.859 73.404,220.921 76.017 C 220.710 76.603,220.420 77.383,220.276 77.750 C 219.415 79.946,220.422 84.396,222.136 85.964 C 224.695 88.307,229.747 87.628,230.498 84.842 C 230.726 83.994,230.935 83.852,232.138 83.727 C 233.636 83.570,234.272 84.681,233.356 85.853 C 233.186 86.071,232.876 86.587,232.668 87.000 C 232.460 87.412,232.177 87.816,232.039 87.896 C 231.901 87.976,231.516 88.287,231.185 88.587 C 230.853 88.887,230.282 89.213,229.916 89.312 C 229.550 89.411,228.953 89.644,228.590 89.829 C 227.651 90.309,224.670 90.316,223.531 89.841 C 223.101 89.662,222.444 89.438,222.069 89.342 C 220.717 88.997,218.079 86.063,217.834 84.631 C 217.751 84.146,217.529 83.355,217.341 82.873 C 216.865 81.649,216.852 78.555,217.318 77.371 C 217.493 76.927,217.690 76.211,217.754 75.780 C 217.819 75.349,218.032 74.795,218.228 74.549 C 218.423 74.302,218.771 73.786,219.000 73.402 C 219.532 72.510,220.802 71.423,221.617 71.162 C 221.965 71.051,222.506 70.805,222.819 70.616 C 224.179 69.794,227.607 69.809,229.333 70.643 M166.417 70.333 C 168.744 70.863,169.916 71.565,171.186 73.192 C 172.775 75.228,171.919 80.107,169.743 81.418 C 168.010 82.461,168.329 82.396,164.472 82.493 C 162.485 82.543,160.805 82.639,160.737 82.707 C 160.497 82.948,160.353 84.448,160.343 86.803 C 160.338 88.115,160.256 89.334,160.161 89.511 C 159.835 90.121,158.148 89.842,157.628 89.093 C 157.560 88.996,157.504 84.958,157.503 80.119 C 157.500 70.581,157.489 70.698,158.405 70.327 C 158.872 70.138,165.582 70.143,166.417 70.333 M200.503 70.418 C 201.277 70.819,201.573 71.740,201.170 72.493 C 200.864 73.066,200.079 73.167,195.901 73.167 C 190.999 73.167,191.333 72.981,191.333 75.709 C 191.333 76.886,191.415 77.707,191.569 78.075 L 191.805 78.640 195.834 78.695 C 200.443 78.758,200.584 78.802,200.384 80.130 C 200.238 81.092,200.292 81.080,195.950 81.129 C 190.936 81.185,191.333 80.917,191.333 84.243 C 191.333 87.425,190.830 87.139,196.538 87.201 C 199.425 87.232,201.215 87.314,201.323 87.422 C 201.688 87.788,201.586 89.194,201.169 89.532 C 200.591 89.999,189.021 89.927,188.547 89.452 C 188.271 89.176,188.246 88.547,188.199 80.536 C 188.144 71.031,188.163 70.797,189.052 70.411 C 189.866 70.057,199.817 70.064,200.503 70.418 M263.381 70.348 C 264.336 70.782,264.587 72.412,263.772 72.880 C 263.558 73.002,262.441 73.117,260.966 73.167 C 259.410 73.220,258.444 73.322,258.320 73.447 C 258.174 73.593,258.130 75.592,258.150 81.197 C 258.181 89.944,258.198 89.836,256.794 89.831 C 255.131 89.825,255.167 90.012,255.167 81.217 L 255.167 73.675 254.675 73.421 C 254.317 73.236,253.649 73.166,252.217 73.164 C 249.969 73.161,249.503 73.009,249.271 72.197 C 249.077 71.522,249.473 70.567,250.042 70.339 C 250.597 70.115,262.890 70.124,263.381 70.348 M289.589 70.403 C 293.093 71.403,294.154 72.359,294.751 75.056 C 295.045 76.384,295.030 76.752,294.613 78.605 C 294.374 79.668,293.419 81.064,292.797 81.261 C 291.545 81.659,290.836 82.967,291.476 83.702 C 291.738 84.003,292.115 84.587,292.312 85.000 C 292.510 85.412,292.827 85.975,293.017 86.250 C 293.883 87.504,294.500 88.598,294.500 88.880 C 294.500 90.481,291.817 89.958,291.169 88.231 C 291.030 87.861,290.710 87.314,290.458 87.016 C 290.206 86.718,290.000 86.382,290.000 86.270 C 290.000 86.158,289.781 85.767,289.512 85.402 C 289.244 85.038,288.974 84.536,288.911 84.288 C 288.849 84.040,288.497 83.537,288.130 83.169 L 287.461 82.500 285.972 82.500 C 284.964 82.500,284.325 82.582,283.992 82.754 L 283.500 83.009 283.500 85.846 C 283.500 89.493,283.357 89.833,281.824 89.833 C 280.609 89.833,280.652 90.218,280.704 79.882 C 280.742 72.410,280.792 70.667,280.979 70.442 C 281.293 70.064,288.290 70.032,289.589 70.403 M322.272 71.214 C 322.664 71.804,323.050 72.645,323.169 73.167 C 323.284 73.671,323.546 74.383,323.752 74.750 C 323.957 75.117,324.215 75.792,324.325 76.250 C 324.435 76.708,324.676 77.328,324.861 77.628 C 325.046 77.927,325.298 78.655,325.422 79.246 C 325.545 79.836,325.804 80.533,325.997 80.794 C 326.190 81.054,326.458 81.741,326.593 82.320 C 326.728 82.899,326.979 83.570,327.150 83.811 C 327.321 84.053,327.583 84.727,327.732 85.309 C 327.880 85.891,328.153 86.580,328.337 86.839 C 329.718 88.778,328.526 90.534,326.523 89.512 C 325.835 89.161,325.763 89.040,325.570 87.917 C 325.507 87.550,325.281 86.949,325.068 86.581 C 324.855 86.213,324.572 85.446,324.439 84.876 C 324.306 84.306,324.043 83.589,323.853 83.282 C 323.664 82.976,323.425 82.318,323.321 81.821 C 323.218 81.324,322.954 80.604,322.735 80.223 C 322.515 79.841,322.251 79.128,322.148 78.639 C 322.044 78.150,321.788 77.450,321.578 77.083 C 321.369 76.717,321.111 75.991,321.006 75.471 C 320.693 73.919,320.039 73.783,319.661 75.190 C 319.564 75.547,319.309 76.099,319.095 76.416 C 318.880 76.733,318.624 77.442,318.527 77.993 C 318.430 78.543,318.169 79.314,317.946 79.705 C 317.724 80.096,317.451 80.792,317.341 81.250 C 317.231 81.708,317.003 82.308,316.834 82.583 C 316.664 82.858,316.410 83.582,316.269 84.192 C 316.128 84.801,315.822 85.581,315.590 85.923 C 315.357 86.266,315.167 86.712,315.167 86.913 C 315.167 88.483,314.079 89.820,312.796 89.828 C 311.300 89.838,311.194 88.399,312.507 85.904 C 312.778 85.388,313.000 84.794,313.000 84.583 C 313.000 84.373,313.217 83.787,313.483 83.283 C 313.748 82.778,314.049 81.974,314.152 81.496 C 314.254 81.019,314.481 80.428,314.655 80.183 C 314.830 79.937,315.098 79.252,315.250 78.660 C 315.403 78.068,315.679 77.338,315.863 77.039 C 316.047 76.739,316.304 76.039,316.434 75.482 C 316.563 74.926,316.849 74.159,317.069 73.777 C 317.288 73.396,317.521 72.754,317.586 72.351 C 317.671 71.826,317.894 71.413,318.373 70.893 L 319.042 70.167 320.313 70.172 L 321.583 70.177 322.272 71.214 M348.285 70.667 C 348.445 70.984,348.496 72.942,348.498 78.849 C 348.500 86.048,348.521 86.634,348.793 86.880 C 349.043 87.106,349.748 87.154,353.518 87.198 C 358.642 87.258,358.583 87.242,358.458 88.545 C 358.337 89.804,358.633 89.745,352.241 89.798 L 346.497 89.846 346.082 89.430 L 345.667 89.015 345.667 80.249 C 345.667 69.903,345.633 70.108,347.329 70.207 C 347.935 70.242,348.115 70.328,348.285 70.667 M160.564 73.589 C 160.215 74.122,160.298 79.472,160.662 79.911 C 160.835 80.120,161.335 80.167,163.395 80.167 L 165.917 80.167 167.125 79.545 C 168.556 78.809,168.752 78.438,168.733 76.500 C 168.705 73.711,167.859 73.167,163.547 73.167 L 160.841 73.167 160.564 73.589 M284.000 73.382 L 283.583 73.593 283.538 76.624 L 283.493 79.654 284.017 79.926 C 284.447 80.148,284.968 80.187,286.900 80.140 L 289.258 80.083 290.201 79.457 C 291.245 78.764,292.002 77.504,291.997 76.469 C 291.993 75.463,290.841 73.622,290.072 73.390 C 289.157 73.114,284.543 73.108,284.000 73.382 M167.611 74.234 L 168.345 74.968 168.297 76.776 L 168.250 78.583 167.000 79.203 L 165.750 79.823 163.371 79.828 L 160.992 79.833 160.829 79.406 C 160.653 78.943,160.602 74.196,160.768 73.764 C 160.855 73.537,161.287 73.500,163.873 73.500 L 166.877 73.500 167.611 74.234 M289.990 73.718 C 290.476 73.886,290.644 74.095,291.095 75.093 L 291.628 76.270 291.228 77.536 C 290.873 78.663,290.771 78.822,290.300 78.987 C 290.010 79.088,289.628 79.301,289.452 79.460 C 289.078 79.799,284.788 79.982,284.333 79.679 C 283.917 79.401,283.854 74.019,284.264 73.719 C 284.656 73.433,289.165 73.432,289.990 73.718 " stroke="none" fill="#266ac5" fill-rule="evenodd"></path></g></svg>